<?xml version="1.0" encoding="utf-8"?>
<!-- Generator: Adobe Illustrator 16.0.1, SVG Export Plug-In . SVG Version: 6.00 Build 0)  -->
<!DOCTYPE svg PUBLIC "-//W3C//DTD SVG 1.1//EN" "http://www.w3.org/Graphics/SVG/1.1/DTD/svg11.dtd">
<svg version="1.1" xmlns="http://www.w3.org/2000/svg" xmlns:xlink="http://www.w3.org/1999/xlink" x="0px" y="0px" width="1080px"
	 height="776px" viewBox="0 0 1080 776" enable-background="new 0 0 1080 776" xml:space="preserve">
<g id="logo">
</g>
<g id="_x30_1_x5F_variables">
	<text transform="matrix(1 0 0 1 34.77 -3366.3975)" font-family="'Colaborate-Bold'" font-size="72">CODEMATH</text>
	<text transform="matrix(1 0 0 1 34.77 -3283.6387)" font-family="'ConcertOne-Regular'" font-size="72">CODEMATH</text>
	
		<text transform="matrix(1 0 0 1 34.77 -3203.1787)" stroke="#000000" stroke-miterlimit="10" font-family="'CoreHumanistSans'" font-size="72">CODEMATH</text>
	<text transform="matrix(1 0 0 1 34.77 -3121.5693)" font-family="'Existence-Light'" font-size="72">CODEMATH</text>
	
		<text transform="matrix(1 0 0 1 34.77 -3033.0635)" stroke="#000000" stroke-width="4" stroke-linecap="round" stroke-linejoin="round" stroke-miterlimit="10" font-family="'LolitaMedium'" font-size="72">CODEMATH</text>
	<path stroke="#050505" stroke-width="3" stroke-linecap="round" stroke-linejoin="round" stroke-miterlimit="10" d="
		M64.796-2911.403c0.36,0.504,0.792,1.729,0.792,3.023c0,1.729-3.24,3.24-9.649,3.24c-11.449,0-17.642-7.92-17.642-23.762
		c0-16.777,7.561-23.978,18.434-23.978c3.672,0,6.625,0.434,8.641,0.434c0.144,0.432,0.288,1.512,0.288,2.16
		c0,1.943-0.288,2.736-1.8,2.736c-2.016,0-4.32-0.289-6.625-0.289c-8.137,0-12.529,5.617-12.529,19.082
		c0,13.248,4.392,18.578,12.169,18.578C61.844-2910.179,64.796-2911.403,64.796-2911.403z"/>
	<path stroke="#050505" stroke-width="3" stroke-linecap="round" stroke-linejoin="round" stroke-miterlimit="10" d="
		M105.98-2929.333c0,16.057-7.345,24.193-17.786,24.193c-10.513,0-17.713-8.137-17.713-24.193c0-15.914,7.201-23.546,17.713-23.546
		C98.636-2952.879,105.98-2945.247,105.98-2929.333z M88.195-2909.892c6.121,0,11.377-5.256,11.377-19.441
		c0-14.041-5.256-18.792-11.377-18.792c-6.264,0-11.305,4.751-11.305,18.792C76.89-2915.147,81.931-2909.892,88.195-2909.892z"/>
	<path stroke="#050505" stroke-width="3" stroke-linecap="round" stroke-linejoin="round" stroke-miterlimit="10" d="
		M125.418-2952.518c12.889,0,21.458,7.705,21.458,23.33c0,16.273-8.569,23.834-20.45,23.834c-9.217,0-11.665-1.512-11.665-3.674
		v-40.539C114.761-2951.51,115.913-2952.518,125.418-2952.518z M125.994-2947.694c-2.448,0-4.104,0.145-5.184,0.287v36.652
		c1.152,0.359,2.736,0.646,6.192,0.646c6.984,0,13.465-4.824,13.465-19.08C140.467-2942.583,133.915-2947.694,125.994-2947.694z"/>
	<path stroke="#050505" stroke-width="3" stroke-linecap="round" stroke-linejoin="round" stroke-miterlimit="10" d="
		M158.968-2905.571c-2.232,0-3.24-0.576-3.24-1.729v-43.779c0-0.791,0.36-1.367,2.952-1.367h20.594
		c0.144,0.432,0.36,1.512,0.36,2.16c0,2.23-0.576,2.736-1.8,2.736h-16.057v17.136h15.553c0.144,0.432,0.288,1.297,0.288,1.943
		c0,1.945-0.504,2.449-1.584,2.449h-14.257v15.697h18.217c0.216,0.432,0.36,1.367,0.36,2.16c0,2.088-0.504,2.592-1.728,2.592
		H158.968z"/>
	<path stroke="#050505" stroke-width="3" stroke-linecap="round" stroke-linejoin="round" stroke-miterlimit="10" d="
		M224.851-2952.446c3.816,0,4.248,0.504,4.32,2.16l2.16,43.634c0,0.648-0.432,1.08-3.096,1.08c-2.521,0-2.953-0.432-2.953-1.08
		l-1.8-38.378l-10.441,34.851c-0.432,1.799-1.368,2.52-3.672,2.52c-2.448,0-3.24-0.576-3.745-2.52l-10.513-34.923l-1.872,38.451
		c0,0.648-0.36,1.08-2.665,1.08c-2.376,0-2.664-0.432-2.664-1.08l2.16-43.634c0.072-1.656,0.504-2.16,4.249-2.16
		c3.744,0,4.176,0.432,4.536,2.23l10.801,37.011l10.873-37.011C220.89-2952.014,221.178-2952.446,224.851-2952.446z"/>
	<path stroke="#050505" stroke-width="3" stroke-linecap="round" stroke-linejoin="round" stroke-miterlimit="10" d="
		M242.775-2906.866c-0.288,1.223-0.864,1.654-2.376,1.654c-1.296,0-2.88-0.359-3.6-0.936l14.257-45.722
		c0.864-0.289,1.944-0.576,3.24-0.576c2.376,0,3.168,0.432,3.528,1.584l13.25,42.05c0.288,1.008,0.359,1.439,0.359,1.873
		c0,0.936-0.504,1.367-1.872,1.367h-3.816l-4.464-14.904H246.88L242.775-2906.866z M260.129-2924.509l-6.048-20.666l-6.193,20.666
		H260.129z"/>
	<path stroke="#050505" stroke-width="3" stroke-linecap="round" stroke-linejoin="round" stroke-miterlimit="10" d="
		M310.385-2952.446c2.592,0,3.024,0.359,3.024,1.08v21.025h18.865v-21.025c0-0.721,0.432-1.08,3.096-1.08
		c2.593,0,3.024,0.359,3.024,1.08v44.714c0,0.648-0.359,1.08-3.024,1.08c-2.664,0-3.096-0.432-3.096-1.08v-19.369h-18.865v19.369
		c0,0.648-0.36,1.08-3.024,1.08c-2.665,0-3.097-0.432-3.097-1.08v-44.714C307.288-2952.086,307.72-2952.446,310.385-2952.446z"/>
	<text transform="matrix(1 0 0 1 653.77 -3369.8457)" font-family="'AbsaraSansTF-Bold'" font-size="72">CODEMATH</text>
	<text transform="matrix(1 0 0 1 476.2695 -975.6162)" font-family="'AbsaraSansTF-Bold'" font-size="74.2989">codeMath</text>
	<text transform="matrix(1 0 0 1 653.77 -3287.0869)" font-family="'CorporateA-Demi'" font-size="72">CODEMATH</text>
	
		<text transform="matrix(1 0 0 1 653.77 -3206.627)" stroke="#000000" stroke-miterlimit="10" font-family="'Elderkin-Medium'" font-size="72">CODEMATH</text>
	
		<text transform="matrix(1 0 0 1 11.2344 -967.5498)" stroke="#000000" stroke-miterlimit="10" font-family="'Elderkin-Medium'" font-size="108.9934">codeMath</text>
	<text transform="matrix(1 0 0 1 653.77 -3125.0176)" font-family="'FedraSansCondStd-Medium'" font-size="72">CODEMATH</text>
	<text transform="matrix(1 0 0 1 653.77 -3052.5117)" font-family="'Legato-Bold'" font-size="72">CODEMATH</text>
	<text transform="matrix(1 0 0 1 653.77 -2982.5117)" font-family="'TodaySHOP-Bold'" font-size="72">CODEMA+H</text>
	<path stroke="#000000" stroke-width="20" stroke-linecap="round" stroke-linejoin="round" stroke-miterlimit="10" d="
		M18.73-1200.242c0-2.69,1.113-4.775,3.342-6.26c0.742-0.37,1.207-0.648,1.393-0.835c5.107-2.133,9.006-4.706,11.701-7.72
		c2.691-3.015,4.617-5.959,5.779-8.834c1.16-2.875,1.787-5.355,1.881-7.443c0.092-2.087,0.141-3.223,0.141-3.41v-0.557v-53.84
		c0-6.912,1.229-12.749,3.689-17.516c2.461-4.764,5.643-8.826,9.541-12.189c3.9-3.362,8.172-5.93,12.814-7.706
		s9.146-3.178,13.512-4.205h1.531c0.371-0.185,0.836-0.278,1.395-0.278c2.135,0,3.945,0.779,5.432,2.338
		c1.484,1.558,2.229,3.425,2.229,5.6c0,2.176-0.631,3.926-1.889,5.249s-2.82,2.175-4.684,2.553h-0.84
		c-2.516,0.558-5.338,1.347-8.461,2.366c-3.125,1.021-6.131,2.528-9.02,4.521c-2.891,1.994-5.291,4.568-7.203,7.721
		c-1.91,3.152-2.865,7.003-2.865,11.547v53.562c0.186,2.133,0.094,4.662-0.277,7.582c-0.369,2.922-1.229,5.96-2.574,9.113
		c-1.348,3.153-3.111,6.331-5.293,9.53s-5.084,6.237-8.705,9.11c3.807,3.062,6.871,6.261,9.193,9.6
		c2.32,3.339,3.945,6.4,4.875,9.183c1.484,3.989,2.32,7.515,2.504,10.574c0.184,3.061,0.277,5.054,0.277,5.981v58.152
		c0,4.546,0.955,8.394,2.865,11.548c1.912,3.151,4.312,5.726,7.203,7.722c2.889,1.991,5.895,3.499,9.02,4.52
		c3.123,1.019,5.945,1.809,8.461,2.366h0.84c1.863,0.379,3.426,1.254,4.684,2.625s1.889,3.143,1.889,5.318
		c0,2.175-0.766,4.018-2.299,5.53c-1.531,1.509-3.32,2.266-5.361,2.266c-0.559,0-1.023-0.094-1.395-0.278h-1.531
		c-4.365-0.749-8.869-2.079-13.512-3.994s-8.914-4.555-12.814-7.915c-3.898-3.364-7.08-7.428-9.541-12.192
		c-2.461-4.766-3.689-10.603-3.689-17.515v-58.432v-0.557c0-0.186-0.049-1.321-0.141-3.408c-0.094-2.085-0.721-4.566-1.881-7.441
		c-1.162-2.875-3.018-5.819-5.57-8.834c-2.555-3.014-6.432-5.589-11.631-7.724c-0.557,0-1.113-0.276-1.672-0.834
		C19.75-1195.278,18.637-1197.365,18.73-1200.242z"/>
	<path stroke="#000000" stroke-width="15" stroke-linecap="round" stroke-linejoin="round" stroke-miterlimit="10" d="
		M106.481-1192.468c0-3.035,1.045-5.605,3.138-7.718c2.091-2.11,4.641-3.168,7.652-3.168h45.305v-36.54v-4.299
		c0-2.995,1.081-5.566,3.237-7.717c2.156-2.148,4.738-3.226,7.747-3.226c3.006,0,5.556,1.077,7.648,3.226
		c2.09,2.15,3.139,4.722,3.139,7.717v4.299v36.54h45.701c3.006,0,5.588,1.058,7.747,3.168c2.156,2.112,3.234,4.683,3.234,7.718
		c0,3.033-1.078,5.607-3.234,7.72c-2.159,2.111-4.741,3.166-7.747,3.166h-45.701v44.171v0.78c0,2.997-1.078,5.541-3.234,7.626
		c-2.159,2.083-4.679,3.125-7.553,3.125c-3.009,0-5.591-1.072-7.747-3.225c-2.156-2.15-3.237-4.657-3.237-7.526v-44.951h-45.305
		c-3.012,0-5.562-1.088-7.652-3.265C107.526-1187.022,106.481-1189.562,106.481-1192.468z"/>
	<path stroke="#000000" stroke-width="20" stroke-linecap="round" stroke-linejoin="round" stroke-miterlimit="10" d="
		M252.176-1072.795c0-2.176,0.629-3.926,1.887-5.247c1.258-1.325,2.82-2.176,4.686-2.555h0.84c2.516-0.558,5.334-1.348,8.459-2.366
		c3.123-1.021,6.131-2.528,9.021-4.52c2.891-1.996,5.291-4.57,7.201-7.722c1.912-3.154,2.867-7.002,2.867-11.548v-53.562
		c-0.188-2.133-0.094-4.66,0.277-7.581c0.369-2.92,1.227-5.958,2.574-9.112c1.344-3.153,3.109-6.331,5.293-9.53
		c2.18-3.199,5.084-6.237,8.705-9.112c-3.809-3.06-6.873-6.262-9.193-9.6c-2.322-3.339-3.947-6.398-4.875-9.183
		c-1.486-3.986-2.322-7.513-2.504-10.572c-0.186-3.06-0.277-5.056-0.277-5.983v-58.152c0-4.544-0.955-8.395-2.867-11.547
		c-1.91-3.152-4.311-5.727-7.201-7.721c-2.891-1.993-5.898-3.501-9.021-4.521c-3.125-1.02-5.943-1.809-8.459-2.366h-0.84
		c-1.865-0.378-3.428-1.253-4.686-2.624s-1.887-3.143-1.887-5.32c0-2.174,0.766-4.018,2.299-5.527
		c1.531-1.51,3.318-2.268,5.361-2.268c0.557,0,1.021,0.094,1.393,0.278h1.533c4.363,0.749,8.867,2.079,13.51,3.993
		c4.643,1.916,8.916,4.556,12.814,7.918c3.9,3.363,7.08,7.426,9.541,12.189c2.461,4.767,3.691,10.604,3.691,17.516v58.432v0.557
		c0,0.188,0.047,1.323,0.141,3.408c0.09,2.087,0.717,4.568,1.879,7.443c1.16,2.875,3.018,5.819,5.572,8.834
		c2.553,3.014,6.43,5.589,11.631,7.722c0.557,0,1.113,0.278,1.672,0.833c2.318,1.3,3.434,3.387,3.342,6.262
		c0,2.69-1.113,4.777-3.342,6.26c-0.744,0.372-1.209,0.65-1.395,0.835c-5.107,2.133-9.008,4.708-11.699,7.722
		c-2.695,3.015-4.621,5.959-5.781,8.834c-1.162,2.875-1.789,5.356-1.879,7.443c-0.094,2.087-0.141,3.224-0.141,3.408v0.558v53.839
		c0,6.912-1.23,12.749-3.691,17.515c-2.461,4.765-5.641,8.828-9.541,12.192c-3.898,3.36-8.172,5.929-12.814,7.706
		c-4.643,1.774-9.146,3.176-13.51,4.203h-1.533c-0.371,0.185-0.836,0.278-1.393,0.278c-2.137,0-3.947-0.779-5.432-2.337
		C252.918-1068.753,252.176-1070.62,252.176-1072.795z"/>
	<path stroke="#000000" stroke-width="20" stroke-linecap="round" stroke-linejoin="round" stroke-miterlimit="10" d="
		M484.73-1200.242c0-2.69,1.113-4.775,3.342-6.26c0.742-0.37,1.207-0.648,1.393-0.835c5.107-2.133,9.006-4.706,11.701-7.72
		c2.691-3.015,4.617-5.959,5.779-8.834c1.16-2.875,1.787-5.355,1.881-7.443c0.092-2.087,0.141-3.223,0.141-3.41v-0.557v-53.84
		c0-6.912,1.229-12.749,3.689-17.516c2.461-4.764,5.643-8.826,9.541-12.189c3.9-3.362,8.172-5.93,12.814-7.706
		s9.146-3.178,13.512-4.205h1.531c0.371-0.185,0.836-0.278,1.395-0.278c2.135,0,3.945,0.779,5.432,2.338
		c1.484,1.558,2.229,3.425,2.229,5.6c0,2.176-0.631,3.926-1.889,5.249s-2.82,2.175-4.684,2.553h-0.84
		c-2.516,0.558-5.338,1.347-8.461,2.366c-3.125,1.021-6.131,2.528-9.02,4.521c-2.891,1.994-5.291,4.568-7.203,7.721
		c-1.91,3.152-2.865,7.003-2.865,11.547v53.562c0.186,2.133,0.094,4.662-0.277,7.582c-0.369,2.922-1.229,5.96-2.574,9.113
		c-1.348,3.153-3.111,6.331-5.293,9.53s-5.084,6.237-8.705,9.11c3.807,3.062,6.871,6.261,9.193,9.6
		c2.32,3.339,3.945,6.4,4.875,9.183c1.484,3.989,2.32,7.515,2.504,10.574c0.184,3.061,0.277,5.054,0.277,5.981v58.152
		c0,4.546,0.955,8.394,2.865,11.548c1.912,3.151,4.312,5.726,7.203,7.722c2.889,1.991,5.895,3.499,9.02,4.52
		c3.123,1.019,5.945,1.809,8.461,2.366h0.84c1.863,0.379,3.426,1.254,4.684,2.625s1.889,3.143,1.889,5.318
		c0,2.175-0.766,4.018-2.299,5.53c-1.531,1.509-3.32,2.266-5.361,2.266c-0.559,0-1.023-0.094-1.395-0.278h-1.531
		c-4.365-0.749-8.869-2.079-13.512-3.994s-8.914-4.555-12.814-7.915c-3.898-3.364-7.08-7.428-9.541-12.192
		c-2.461-4.766-3.689-10.603-3.689-17.515v-58.432v-0.557c0-0.186-0.049-1.321-0.141-3.408c-0.094-2.085-0.721-4.566-1.881-7.441
		c-1.162-2.875-3.018-5.819-5.57-8.834c-2.555-3.014-6.432-5.589-11.631-7.724c-0.557,0-1.113-0.276-1.672-0.834
		C485.75-1195.278,484.637-1197.365,484.73-1200.242z"/>
	<path stroke="#000000" stroke-width="15" stroke-linecap="round" stroke-linejoin="round" stroke-miterlimit="10" d="
		M572.481-1192.468c0-3.035,1.045-5.605,3.138-7.718c2.091-2.11,4.641-3.168,7.652-3.168h45.305v-36.54v-4.299
		c0-2.995,1.081-5.566,3.237-7.717c2.155-2.148,4.738-3.226,7.747-3.226c3.006,0,5.556,1.077,7.648,3.226
		c2.09,2.15,3.139,4.722,3.139,7.717v4.299v36.54h45.701c3.006,0,5.588,1.058,7.747,3.168c2.155,2.112,3.234,4.683,3.234,7.718
		c0,3.033-1.079,5.607-3.234,7.72c-2.159,2.111-4.741,3.166-7.747,3.166h-45.701v44.171v0.78c0,2.997-1.078,5.541-3.234,7.626
		c-2.16,2.083-4.68,3.125-7.553,3.125c-3.009,0-5.592-1.072-7.747-3.225c-2.156-2.15-3.237-4.657-3.237-7.526v-44.951h-45.305
		c-3.012,0-5.562-1.088-7.652-3.265C573.526-1187.022,572.481-1189.562,572.481-1192.468z"/>
	<path stroke="#000000" stroke-width="20" stroke-linecap="round" stroke-linejoin="round" stroke-miterlimit="10" d="
		M718.176-1072.795c0-2.176,0.629-3.926,1.887-5.247c1.258-1.325,2.82-2.176,4.686-2.555h0.84c2.516-0.558,5.334-1.348,8.459-2.366
		c3.123-1.021,6.131-2.528,9.021-4.52c2.891-1.996,5.291-4.57,7.201-7.722c1.912-3.154,2.867-7.002,2.867-11.548v-53.562
		c-0.188-2.133-0.094-4.66,0.277-7.581c0.369-2.92,1.227-5.958,2.574-9.112c1.344-3.153,3.109-6.331,5.293-9.53
		c2.18-3.199,5.084-6.237,8.705-9.112c-3.809-3.06-6.873-6.262-9.193-9.6c-2.322-3.339-3.947-6.398-4.875-9.183
		c-1.486-3.986-2.322-7.513-2.504-10.572c-0.186-3.06-0.277-5.056-0.277-5.983v-58.152c0-4.544-0.955-8.395-2.867-11.547
		c-1.91-3.152-4.311-5.727-7.201-7.721c-2.891-1.993-5.898-3.501-9.021-4.521c-3.125-1.02-5.943-1.809-8.459-2.366h-0.84
		c-1.865-0.378-3.428-1.253-4.686-2.624s-1.887-3.143-1.887-5.32c0-2.174,0.766-4.018,2.299-5.527
		c1.531-1.51,3.318-2.268,5.361-2.268c0.557,0,1.021,0.094,1.393,0.278h1.533c4.363,0.749,8.867,2.079,13.51,3.993
		c4.643,1.916,8.916,4.556,12.814,7.918c3.9,3.363,7.08,7.426,9.541,12.189c2.461,4.767,3.691,10.604,3.691,17.516v58.432v0.557
		c0,0.188,0.047,1.323,0.141,3.408c0.09,2.087,0.717,4.568,1.879,7.443c1.16,2.875,3.018,5.819,5.572,8.834
		c2.553,3.014,6.43,5.589,11.631,7.722c0.557,0,1.113,0.278,1.672,0.833c2.318,1.3,3.434,3.387,3.342,6.262
		c0,2.69-1.113,4.777-3.342,6.26c-0.744,0.372-1.209,0.65-1.395,0.835c-5.107,2.133-9.008,4.708-11.699,7.722
		c-2.695,3.015-4.621,5.959-5.781,8.834c-1.162,2.875-1.789,5.356-1.879,7.443c-0.094,2.087-0.141,3.224-0.141,3.408v0.558v53.839
		c0,6.912-1.23,12.749-3.691,17.515c-2.461,4.765-5.641,8.828-9.541,12.192c-3.898,3.36-8.172,5.929-12.814,7.706
		c-4.643,1.774-9.146,3.176-13.51,4.203h-1.533c-0.371,0.185-0.836,0.278-1.393,0.278c-2.137,0-3.947-0.779-5.432-2.337
		C718.918-1068.753,718.176-1070.62,718.176-1072.795z"/>
	<text transform="matrix(1 0 0 1 804.2993 -2614.3379)" font-family="'TodaySHOP-Bold'" font-size="72">3</text>
	<text transform="matrix(1 0 0 1 168.7993 -2547.4258)" font-family="'TodaySHOP-Bold'" font-size="72">3</text>
	<path d="M67.25-2859.487c-3.24-2.232-5.76-3.098-9.145-3.098c-6.913,0-11.881,5.33-11.881,12.891c0,7.488,5.4,13.32,12.313,13.32
		c3.96,0,6.84-0.936,10.009-3.312l5.4,9.865c-5.544,3.889-11.305,5.545-17.786,5.256c-14.113-0.648-23.618-10.873-23.618-25.346
		c0-13.826,10.801-24.482,24.842-24.482c6.409,0,11.233,1.439,16.417,4.969L67.25-2859.487z"/>
	<path d="M114.699-2866.688c4.104,4.393,6.553,10.584,6.553,16.777c0,15.121-10.225,25.346-25.418,25.346
		c-14.473,0-24.986-10.369-24.986-24.697c0-14.258,10.801-25.131,24.986-25.131C103.754-2874.394,109.803-2871.874,114.699-2866.688
		z M84.672-2849.983c0,3.744,1.584,8.064,3.889,10.586c1.944,2.16,4.608,3.383,7.489,3.527c6.984,0.432,11.377-4.68,11.377-13.033
		c0-8.209-5.185-14.328-12.097-14.328C88.777-2863.231,84.672-2858.12,84.672-2849.983z"/>
	<path d="M124.703-2872.81c1.368-0.145,2.448-0.287,3.096-0.287c2.808-0.289,5.617-0.432,8.209-0.504h4.176
		c4.248,0,9.505,0.863,13.537,2.16c9.793,3.168,15.625,11.736,15.625,22.754c0,7.848-4.177,15.48-10.585,19.369
		c-4.176,2.592-10.801,3.961-19.226,3.961c-4.825,0-9.145-0.289-14.833-0.865V-2872.81z M137.52-2835.366
		c0.432,0,0.792,0.072,1.008,0.072c0.792,0.145,1.512,0.145,2.376,0.145h1.224c8.497,0,13.753-5.186,13.753-13.609
		c0-5.041-2.736-10.01-6.913-12.457c-2.88-1.656-5.617-2.232-10.513-2.232h-0.937V-2835.366z"/>
	<path d="M185.256-2854.88h15.77v9.217h-15.77v9.865h20.666l-1.152,9.938h-31.971v-47.236h30.026v9.721h-17.569V-2854.88z"/>
	<path d="M265.971-2825.86h-12.745l-3.096-25.275l-11.017,25.275h-8.064l-10.945-25.131l-3.168,25.131h-10.729l7.128-47.236h10.297
		l12.529,29.09l12.529-29.09h10.226L265.971-2825.86z"/>
	<path d="M299.743-2738.895h-17.426l-4.248,10.367h-12.098l20.306-47.234h11.161l20.018,47.234h-13.609L299.743-2738.895z
		 M291.246-2761.361l-5.977,14.689h11.593L291.246-2761.361z"/>
	<path d="M331.021-2855.067v-18.637h12.064v18.637h18.242v11.082h-18.242v18.73h-12.064v-18.73h-18.143v-11.082H331.021z"/>
	<path d="M393.889-2855.024v-18.072h12.816v47.236h-12.816v-19.227h-17.498v19.227h-12.816v-47.236h12.816v18.072H393.889z"/>
	<text transform="matrix(1 0 0 1 653.77 -2915.4492)" font-family="'FedraEleven-Bold'" font-size="72">CODEMATH</text>
	<text transform="matrix(1 0 0 1 653.77 -2837.4492)" font-family="'FedraTwelve-Bold'" font-size="72">CODEMATH</text>
	<text transform="matrix(1 0 0 1 263.6885 -1996.9775)" font-family="'Gotham-Book'" font-size="57.7499">variables</text>
	<line fill="#FFFFFF" stroke="#000000" stroke-miterlimit="10" x1="263.688" y1="-1933.593" x2="601.17" y2="-1933.593"/>
	<line fill="#FFFFFF" stroke="#000000" stroke-miterlimit="10" x1="263.688" y1="-1903.595" x2="601.17" y2="-1903.595"/>
	<line fill="#FFFFFF" stroke="#000000" stroke-miterlimit="10" x1="263.688" y1="-1872.097" x2="601.17" y2="-1872.097"/>
	<line fill="#FFFFFF" stroke="#000000" stroke-miterlimit="10" x1="263.688" y1="-1835.643" x2="601.17" y2="-1835.643"/>
	<line fill="#FFFFFF" stroke="#000000" stroke-miterlimit="10" x1="263.688" y1="-1798.6" x2="601.17" y2="-1798.6"/>
	<rect x="777.5" y="-2095.943" fill="#50BE97" width="330.943" height="330.943"/>
	<text transform="matrix(1 0 0 1 914.5 -1727.2734)" font-family="'Gotham-Book'" font-size="37.5">x</text>
	<line fill="#FFFFFF" stroke="#000000" stroke-miterlimit="10" x1="777.5" y1="-1736.273" x2="909.167" y2="-1736.273"/>
	<line fill="#FFFFFF" stroke="#000000" stroke-miterlimit="10" x1="936.5" y1="-1736.273" x2="1071.5" y2="-1736.273"/>
	<line fill="none" stroke="#000000" stroke-miterlimit="10" x1="771.833" y1="-1730.667" x2="783.833" y2="-1743.334"/>
	<line fill="none" stroke="#000000" stroke-miterlimit="10" x1="1066.5" y1="-1727.273" x2="1075.833" y2="-1743.334"/>
	<text transform="matrix(1 0 0 1 731.8335 -1902.334)" font-family="'Gotham-Book'" font-size="37.5">x</text>
	<line fill="#FFFFFF" stroke="#000000" stroke-miterlimit="10" x1="741.833" y1="-1766.12" x2="741.833" y2="-1897.788"/>
	<line fill="#FFFFFF" stroke="#000000" stroke-miterlimit="10" x1="741.833" y1="-1925.12" x2="741.833" y2="-2060.12"/>
	<line fill="#FFFFFF" stroke="#000000" stroke-miterlimit="10" x1="735.833" y1="-1762" x2="749.833" y2="-1774"/>
	<line fill="#FFFFFF" stroke="#000000" stroke-miterlimit="10" x1="735.833" y1="-2052" x2="747.166" y2="-2066.667"/>
	<path fill="none" stroke="#000000" stroke-width="0" stroke-linecap="round" stroke-linejoin="round" d="M289-2932.638"/>
	<path fill="none" stroke="#000000" stroke-width="0" stroke-linecap="round" stroke-linejoin="round" d="M282.952-2926.562"/>
	<path fill="#080606" stroke="#050505" stroke-width="3" stroke-linecap="round" stroke-linejoin="round" d="M300.666-2932.638H289
		l0-14.912v-3.816c0-0.648-0.36-1.08-2.953-1.08c-2.664,0-3.096,0.432-3.096,1.08v3.816l0,14.912h-10.44
		c-1.296,0-1.8,0.879-1.8,3.039c0,0.791,0.144,2.533,0.359,3.037h11.881v19.91c0,0.648,0.36,1.08,2.953,1.08
		c2.664,0,3.096-0.432,3.096-1.08v-19.91h10.225c1.225,0,1.801-0.807,1.801-3.037
		C301.026-2930.247,300.811-2932.204,300.666-2932.638z"/>
	<polygon points="265.971,-2825.845 317.456,-2825.845 291.713,-2873.081 291.713,-2873.081 	"/>
	<path d="M67.25-2656.82c-3.24-2.23-5.76-3.096-9.145-3.096c-6.913,0-11.881,5.328-11.881,12.889c0,7.49,5.4,13.322,12.313,13.322
		c3.96,0,6.84-0.938,10.009-3.312l5.4,9.865c-5.544,3.889-11.305,5.543-17.786,5.256c-14.113-0.648-23.618-10.873-23.618-25.346
		c0-13.826,10.801-24.482,24.842-24.482c6.409,0,11.233,1.439,16.417,4.969L67.25-2656.82z"/>
	<path d="M114.699-2664.02c4.104,4.393,6.553,10.584,6.553,16.777c0,15.121-10.225,25.346-25.418,25.346
		c-14.473,0-24.986-10.369-24.986-24.697c0-14.258,10.801-25.131,24.986-25.131C103.754-2671.725,109.803-2669.205,114.699-2664.02z
		 M84.672-2647.314c0,3.744,1.584,8.064,3.889,10.584c1.944,2.16,4.608,3.385,7.489,3.529c6.984,0.432,11.377-4.682,11.377-13.033
		c0-8.209-5.185-14.33-12.097-14.33C88.777-2660.564,84.672-2655.451,84.672-2647.314z"/>
	<path d="M124.703-2670.141c1.368-0.145,2.448-0.287,3.096-0.287c2.808-0.289,5.617-0.434,8.209-0.506h4.176
		c4.248,0,9.505,0.865,13.537,2.16c9.793,3.17,15.625,11.738,15.625,22.754c0,7.85-4.177,15.482-10.585,19.371
		c-4.176,2.592-10.801,3.959-19.226,3.959c-4.825,0-9.145-0.287-14.833-0.863V-2670.141z M137.52-2632.697
		c0.432,0,0.792,0.072,1.008,0.072c0.792,0.145,1.512,0.145,2.376,0.145h1.224c8.497,0,13.753-5.186,13.753-13.609
		c0-5.041-2.736-10.01-6.913-12.457c-2.88-1.656-5.617-2.232-10.513-2.232h-0.937V-2632.697z"/>
	<path d="M185.256-2652.211h15.77v9.217h-15.77v9.865h20.666l-1.152,9.936h-31.971v-47.234h30.026v9.721h-17.569V-2652.211z"/>
	<path d="M265.971-2623.193h-12.745l-3.096-25.273l-11.017,25.273h-8.064l-10.945-25.129l-3.168,25.129h-10.729l7.128-47.234h10.297
		l12.529,29.09l12.529-29.09h10.226L265.971-2623.193z"/>
	<path d="M331.021-2652.4v-18.635h12.064v18.635h18.242v11.082h-18.242v18.732h-12.064v-18.732h-18.143v-11.082H331.021z"/>
	<path d="M393.889-2652.355v-18.072h12.816v47.234h-12.816v-19.225h-17.498v19.225h-12.816v-47.234h12.816v18.072H393.889z"/>
	<polygon points="265.971,-2623.178 317.456,-2623.178 291.713,-2670.412 291.713,-2670.412 	"/>
	<path d="M67.25-2762.152c-3.24-2.232-5.76-3.098-9.145-3.098c-6.913,0-11.881,5.33-11.881,12.891c0,7.488,5.4,13.32,12.313,13.32
		c3.96,0,6.84-0.936,10.009-3.312l5.4,9.865c-5.544,3.889-11.305,5.545-17.786,5.256c-14.113-0.648-23.618-10.873-23.618-25.346
		c0-13.826,10.801-24.483,24.842-24.483c6.409,0,11.233,1.44,16.417,4.969L67.25-2762.152z"/>
	<path d="M114.699-2769.354c4.104,4.393,6.553,10.584,6.553,16.777c0,15.121-10.225,25.346-25.418,25.346
		c-14.473,0-24.986-10.369-24.986-24.697c0-14.258,10.801-25.131,24.986-25.131C103.754-2777.059,109.803-2774.539,114.699-2769.354
		z M84.672-2752.648c0,3.744,1.584,8.064,3.889,10.586c1.944,2.16,4.608,3.383,7.489,3.527c6.984,0.432,11.377-4.68,11.377-13.033
		c0-8.209-5.185-14.328-12.097-14.328C88.777-2765.896,84.672-2760.785,84.672-2752.648z"/>
	<path d="M124.703-2775.475c1.368-0.145,2.448-0.287,3.096-0.287c2.808-0.29,5.617-0.432,8.209-0.504h4.176
		c4.248,0,9.505,0.864,13.537,2.161c9.793,3.168,15.625,11.736,15.625,22.754c0,7.848-4.177,15.48-10.585,19.369
		c-4.176,2.592-10.801,3.961-19.226,3.961c-4.825,0-9.145-0.289-14.833-0.865V-2775.475z M137.52-2738.031
		c0.432,0,0.792,0.072,1.008,0.072c0.792,0.145,1.512,0.145,2.376,0.145h1.224c8.497,0,13.753-5.186,13.753-13.609
		c0-5.041-2.736-10.01-6.913-12.457c-2.88-1.656-5.617-2.232-10.513-2.232h-0.937V-2738.031z"/>
	<path d="M185.256-2757.545h15.77v9.217h-15.77v9.865h20.666l-1.152,9.938h-31.971v-47.236h30.026v9.721h-17.569V-2757.545z"/>
	<path d="M265.971-2728.525h-12.745l-3.096-25.275l-11.017,25.275h-8.064l-10.945-25.131l-3.168,25.131h-10.729l7.128-47.236h10.297
		l12.529,29.09l12.529-29.09h10.226L265.971-2728.525z"/>
	<path d="M331.021-2757.732v-18.637h12.064v18.637h18.242v11.082h-18.242v18.73h-12.064v-18.73h-18.143v-11.082H331.021z"/>
	<path d="M393.889-2757.689v-18.072h12.816v47.236h-12.816v-19.227h-17.498v19.227h-12.816v-47.236h12.816v18.072H393.889z"/>
	<path d="M299.743-2556.793h-17.426l-4.248,10.367h-12.098l20.306-47.234h11.161l20.018,47.234h-13.609L299.743-2556.793z
		 M291.246-2579.26l-5.977,14.689h11.593L291.246-2579.26z"/>
	<path d="M67.25-2580.051c-3.24-2.232-5.76-3.098-9.145-3.098c-6.913,0-11.881,5.33-11.881,12.891c0,7.488,5.4,13.32,12.313,13.32
		c3.96,0,6.84-0.936,10.009-3.312l5.4,9.865c-5.544,3.889-11.305,5.545-17.786,5.256c-14.113-0.648-23.618-10.873-23.618-25.346
		c0-13.826,10.801-24.482,24.842-24.482c6.409,0,11.233,1.439,16.417,4.969L67.25-2580.051z"/>
	<path d="M114.699-2587.252c4.104,4.393,6.553,10.584,6.553,16.777c0,15.121-10.225,25.346-25.418,25.346
		c-14.473,0-24.986-10.369-24.986-24.697c0-14.258,10.801-25.131,24.986-25.131C103.754-2594.957,109.803-2592.438,114.699-2587.252
		z M84.672-2570.547c0,3.744,1.584,8.064,3.889,10.586c1.944,2.16,4.608,3.383,7.489,3.527c6.984,0.432,11.377-4.68,11.377-13.033
		c0-8.209-5.185-14.328-12.097-14.328C88.777-2583.795,84.672-2578.684,84.672-2570.547z"/>
	<path d="M124.703-2593.373c1.368-0.145,2.448-0.287,3.096-0.287c2.808-0.289,5.617-0.432,8.209-0.504h4.176
		c4.248,0,9.505,0.863,13.537,2.16c9.793,3.168,15.625,11.736,15.625,22.754c0,7.848-4.177,15.48-10.585,19.369
		c-4.176,2.592-10.801,3.961-19.226,3.961c-4.825,0-9.145-0.289-14.833-0.865V-2593.373z M137.52-2555.93
		c0.432,0,0.792,0.072,1.008,0.072c0.792,0.145,1.512,0.145,2.376,0.145h1.224c8.497,0,13.753-5.186,13.753-13.609
		c0-5.041-2.736-10.01-6.913-12.457c-2.88-1.656-5.617-2.232-10.513-2.232h-0.937V-2555.93z"/>
	<path d="M265.971-2546.424h-12.745l-3.096-25.275l-11.017,25.275h-8.064l-10.945-25.131l-3.168,25.131h-10.729l7.128-47.236h10.297
		l12.529,29.09l12.529-29.09h10.226L265.971-2546.424z"/>
	<path d="M331.022-2575.631v-18.637h12.064v18.637h18.242v11.082h-18.242v18.73h-12.064v-18.73h-18.144v-11.082H331.022z"/>
	<path d="M393.889-2575.588v-18.072h12.816v47.236h-12.816v-19.227h-17.498v19.227h-12.816v-47.236h12.816v18.072H393.889z"/>
	<text transform="matrix(1 0 0 1 168.7993 -2452.7822)" font-family="'TodaySHOP-Bold'" font-size="72">3</text>
	<path d="M299.743-2462.15h-17.426l-4.248,10.369h-12.098l20.306-47.236h11.161l20.018,47.236h-13.609L299.743-2462.15z
		 M291.246-2484.617l-5.977,14.689h11.593L291.246-2484.617z"/>
	<path d="M67.25-2485.408c-3.24-2.23-5.76-3.096-9.145-3.096c-6.913,0-11.881,5.328-11.881,12.889c0,7.49,5.4,13.322,12.313,13.322
		c3.96,0,6.84-0.938,10.009-3.312l5.4,9.865c-5.544,3.889-11.305,5.543-17.786,5.256c-14.113-0.648-23.618-10.873-23.618-25.346
		c0-13.826,10.801-24.482,24.842-24.482c6.409,0,11.233,1.439,16.417,4.969L67.25-2485.408z"/>
	<path d="M114.699-2492.607c4.104,4.393,6.553,10.584,6.553,16.777c0,15.121-10.225,25.346-25.418,25.346
		c-14.473,0-24.986-10.369-24.986-24.697c0-14.258,10.801-25.131,24.986-25.131C103.754-2500.312,109.803-2497.793,114.699-2492.607
		z M84.672-2475.902c0,3.744,1.584,8.064,3.889,10.584c1.944,2.16,4.608,3.385,7.489,3.529c6.984,0.432,11.377-4.682,11.377-13.033
		c0-8.209-5.185-14.33-12.097-14.33C88.777-2489.152,84.672-2484.039,84.672-2475.902z"/>
	<path d="M124.703-2498.729c1.368-0.145,2.448-0.287,3.096-0.287c2.808-0.289,5.617-0.434,8.209-0.506h4.176
		c4.248,0,9.505,0.865,13.537,2.16c9.793,3.17,15.625,11.738,15.625,22.754c0,7.85-4.177,15.482-10.585,19.371
		c-4.176,2.592-10.801,3.959-19.226,3.959c-4.825,0-9.145-0.287-14.833-0.863V-2498.729z M137.52-2461.285
		c0.432,0,0.792,0.072,1.008,0.072c0.792,0.145,1.512,0.145,2.376,0.145h1.224c8.497,0,13.753-5.186,13.753-13.609
		c0-5.041-2.736-10.01-6.913-12.457c-2.88-1.656-5.617-2.232-10.513-2.232h-0.937V-2461.285z"/>
	<path d="M265.971-2451.781h-12.745l-3.096-25.273l-11.017,25.273h-8.064l-10.945-25.129l-3.168,25.129h-10.729l7.128-47.234h10.297
		l12.529,29.09l12.529-29.09h10.226L265.971-2451.781z"/>
	<path d="M333.742-2482.164v-22.561h14.604v22.561h22.083v13.414h-22.083v22.676h-14.604v-22.676h-21.964v-13.414H333.742z"/>
	<path d="M403.889-2480.943v-18.072h12.816v47.234h-12.816v-19.225h-17.498v19.225h-12.816v-47.234h12.816v18.072H403.889z"/>
	<polygon points="261.831,-2815.155 210.347,-2815.155 236.089,-2755.965 236.089,-2755.965 	"/>
	<polygon points="261.831,-2711.154 210.347,-2711.154 236.089,-2651.965 236.089,-2651.965 	"/>
	<path d="M701.201-2754.965c-3.24-2.23-5.76-3.096-9.145-3.096c-6.912,0-11.881,5.328-11.881,12.889
		c0,7.49,5.4,13.322,12.313,13.322c3.96,0,6.841-0.938,10.009-3.312l5.4,9.865c-5.545,3.889-11.305,5.543-17.785,5.256
		c-14.113-0.648-23.619-10.873-23.619-25.346c0-13.826,10.802-24.482,24.843-24.482c6.409,0,11.233,1.439,16.417,4.969
		L701.201-2754.965z"/>
	<path d="M748.65-2762.164c4.104,4.393,6.553,10.584,6.553,16.777c0,15.121-10.225,25.346-25.418,25.346
		c-14.474,0-24.986-10.369-24.986-24.697c0-14.258,10.801-25.131,24.986-25.131C737.705-2769.869,743.754-2767.35,748.65-2762.164z"
		/>
	<path d="M758.654-2768.285c1.368-0.145,2.448-0.287,3.096-0.287c2.809-0.289,5.617-0.434,8.209-0.506h4.177
		c4.248,0,9.505,0.865,13.537,2.16c9.793,3.17,15.626,11.738,15.626,22.754c0,7.85-4.178,15.482-10.586,19.371
		c-4.176,2.592-10.801,3.959-19.225,3.959c-4.825,0-9.146-0.287-14.834-0.863V-2768.285z M771.471-2730.842
		c0.433,0,0.793,0.072,1.009,0.072c0.792,0.145,1.513,0.145,2.376,0.145h1.225c8.496,0,13.753-5.186,13.753-13.609
		c0-5.041-2.736-10.01-6.913-12.457c-2.88-1.656-5.616-2.232-10.512-2.232h-0.938V-2730.842z"/>
	<path d="M819.207-2750.355h15.77v9.217h-15.77v9.865h20.666l-1.152,9.936H806.75v-47.234h30.027v9.721h-17.57V-2750.355z"/>
	<path d="M899.923-2721.338h-12.744l-3.096-25.273l-11.018,25.273H865l-10.945-25.129l-3.168,25.129h-10.729l7.127-47.234h10.297
		l12.529,29.09l12.53-29.09h10.227L899.923-2721.338z"/>
	<path d="M964.975-2750.545v-18.635h12.064v18.635h18.242v11.082h-18.242v18.732h-12.064v-18.732h-18.143v-11.082H964.975z"/>
	<path d="M1027.842-2750.5v-18.072h12.817v47.234h-12.817v-19.225h-17.498v19.225h-12.816v-47.234h12.816v18.072H1027.842z"/>
	<polygon points="899.923,-2721.322 951.408,-2721.322 925.665,-2768.557 925.665,-2768.557 	"/>
	<polygon points="895.782,-2809.299 844.297,-2809.299 870.04,-2750.109 870.04,-2750.109 	"/>
	<path d="M701.201-2647.965c-3.24-2.23-5.76-3.096-9.145-3.096c-6.912,0-11.881,5.328-11.881,12.889
		c0,7.49,5.4,13.322,12.313,13.322c3.96,0,6.841-0.938,10.009-3.312l5.4,9.865c-5.545,3.889-11.305,5.543-17.785,5.256
		c-14.113-0.648-23.619-10.873-23.619-25.346c0-13.826,10.802-24.482,24.843-24.482c6.409,0,11.233,1.439,16.417,4.969
		L701.201-2647.965z"/>
	<path d="M748.65-2655.164c4.104,4.393,6.553,10.584,6.553,16.777c0,15.121-10.225,25.346-25.418,25.346
		c-14.474,0-24.986-10.369-24.986-24.697c0-14.258,10.801-25.131,24.986-25.131C737.705-2662.869,743.754-2660.35,748.65-2655.164z"
		/>
	<path d="M758.654-2661.285c1.368-0.145,2.448-0.287,3.096-0.287c2.809-0.289,5.617-0.434,8.209-0.506h4.177
		c4.248,0,9.505,0.865,13.537,2.16c9.793,3.17,15.626,11.738,15.626,22.754c0,7.85-4.178,15.482-10.586,19.371
		c-4.176,2.592-10.801,3.959-19.225,3.959c-4.825,0-9.146-0.287-14.834-0.863V-2661.285z M771.471-2623.842
		c0.433,0,0.793,0.072,1.009,0.072c0.792,0.145,1.513,0.145,2.376,0.145h1.225c8.496,0,13.753-5.186,13.753-13.609
		c0-5.041-2.736-10.01-6.913-12.457c-2.88-1.656-5.616-2.232-10.512-2.232h-0.938V-2623.842z"/>
	<path d="M899.923-2614.338h-12.744l-3.096-25.273l-11.018,25.273H865l-10.945-25.129l-3.168,25.129h-10.729l7.127-47.234h10.297
		l12.529,29.09l12.53-29.09h10.227L899.923-2614.338z"/>
	<path d="M964.975-2643.545v-18.635h12.064v18.635h18.242v11.082h-18.242v18.732h-12.064v-18.732h-18.143v-11.082H964.975z"/>
	<path d="M1027.842-2643.5v-18.072h12.817v47.234h-12.817v-19.225h-17.498v19.225h-12.816v-47.234h12.816v18.072H1027.842z"/>
	<polygon points="899.923,-2614.322 951.408,-2614.322 925.665,-2661.557 925.665,-2661.557 	"/>
	<polygon points="895.782,-2702.299 844.297,-2702.299 870.04,-2643.109 870.04,-2643.109 	"/>
	
		<text transform="matrix(1 0 0 1 912.2822 -974.1387)" stroke="#000000" stroke-width="6" stroke-linecap="round" stroke-linejoin="round" stroke-miterlimit="10" font-family="'Existence-Light'" font-size="75.9536">codeMath</text>
	<path stroke="#000000" stroke-width="20" stroke-linecap="round" stroke-linejoin="round" stroke-miterlimit="10" d="
		M920.742-1200.242c0-2.69,1.113-4.775,3.342-6.26c0.742-0.37,1.207-0.648,1.393-0.835c5.107-2.133,9.006-4.706,11.701-7.72
		c2.691-3.015,4.617-5.959,5.779-8.834c1.16-2.875,1.787-5.355,1.881-7.443c0.092-2.087,0.141-3.223,0.141-3.41v-0.557v-53.84
		c0-6.912,1.229-12.749,3.689-17.516c2.461-4.764,5.643-8.826,9.541-12.189c3.9-3.362,8.172-5.93,12.814-7.706
		s9.146-3.178,13.512-4.205h1.531c0.371-0.185,0.836-0.278,1.395-0.278c2.135,0,3.945,0.779,5.432,2.338
		c1.484,1.558,2.229,3.425,2.229,5.6c0,2.176-0.631,3.926-1.889,5.249s-2.82,2.175-4.684,2.553h-0.84
		c-2.516,0.558-5.338,1.347-8.461,2.366c-3.125,1.021-6.131,2.528-9.02,4.521c-2.891,1.994-5.291,4.568-7.203,7.721
		c-1.91,3.152-2.865,7.003-2.865,11.547v53.562c0.186,2.133,0.094,4.662-0.277,7.582c-0.369,2.922-1.229,5.96-2.574,9.113
		c-1.348,3.153-3.111,6.331-5.293,9.53s-5.084,6.237-8.705,9.11c3.807,3.062,6.871,6.261,9.193,9.6
		c2.32,3.339,3.945,6.4,4.875,9.183c1.484,3.989,2.32,7.515,2.504,10.574c0.184,3.061,0.277,5.054,0.277,5.981v58.152
		c0,4.546,0.955,8.394,2.865,11.548c1.912,3.151,4.312,5.726,7.203,7.722c2.889,1.991,5.895,3.499,9.02,4.52
		c3.123,1.019,5.945,1.809,8.461,2.366h0.84c1.863,0.379,3.426,1.254,4.684,2.625s1.889,3.143,1.889,5.318
		c0,2.175-0.766,4.018-2.299,5.53c-1.531,1.509-3.32,2.266-5.361,2.266c-0.559,0-1.023-0.094-1.395-0.278h-1.531
		c-4.365-0.749-8.869-2.079-13.512-3.994s-8.914-4.555-12.814-7.915c-3.898-3.364-7.08-7.428-9.541-12.192
		c-2.461-4.766-3.689-10.603-3.689-17.515v-58.432v-0.557c0-0.186-0.049-1.321-0.141-3.408c-0.094-2.085-0.721-4.566-1.881-7.441
		c-1.162-2.875-3.018-5.819-5.57-8.834c-2.555-3.014-6.432-5.589-11.631-7.724c-0.557,0-1.113-0.276-1.672-0.834
		C921.762-1195.278,920.648-1197.365,920.742-1200.242z"/>
	<path stroke="#000000" stroke-width="15" stroke-linecap="round" stroke-linejoin="round" stroke-miterlimit="10" d="
		M1008.493-1192.468c0-3.035,1.044-5.605,3.138-7.718c2.091-2.11,4.641-3.168,7.652-3.168h45.305v-36.54v-4.299
		c0-2.995,1.081-5.566,3.237-7.717c2.156-2.148,4.738-3.226,7.747-3.226c3.006,0,5.557,1.077,7.648,3.226
		c2.09,2.15,3.139,4.722,3.139,7.717v4.299v36.54h45.701c3.006,0,5.588,1.058,7.747,3.168c2.156,2.112,3.234,4.683,3.234,7.718
		c0,3.033-1.078,5.607-3.234,7.72c-2.159,2.111-4.741,3.166-7.747,3.166h-45.701v44.171v0.78c0,2.997-1.078,5.541-3.234,7.626
		c-2.159,2.083-4.679,3.125-7.553,3.125c-3.009,0-5.591-1.072-7.747-3.225c-2.156-2.15-3.237-4.657-3.237-7.526v-44.951h-45.305
		c-3.012,0-5.562-1.088-7.652-3.265C1009.537-1187.022,1008.493-1189.562,1008.493-1192.468z"/>
	<path stroke="#000000" stroke-width="20" stroke-linecap="round" stroke-linejoin="round" stroke-miterlimit="10" d="
		M1154.188-1072.795c0-2.176,0.629-3.926,1.887-5.247c1.258-1.325,2.82-2.176,4.686-2.555h0.84c2.516-0.558,5.334-1.348,8.459-2.366
		c3.123-1.021,6.13-2.528,9.021-4.52c2.891-1.996,5.291-4.57,7.201-7.722c1.912-3.154,2.867-7.002,2.867-11.548v-53.562
		c-0.188-2.133-0.094-4.66,0.277-7.581c0.369-2.92,1.227-5.958,2.574-9.112c1.344-3.153,3.109-6.331,5.293-9.53
		c2.18-3.199,5.084-6.237,8.705-9.112c-3.809-3.06-6.873-6.262-9.193-9.6c-2.322-3.339-3.947-6.398-4.875-9.183
		c-1.486-3.986-2.322-7.513-2.504-10.572c-0.186-3.06-0.277-5.056-0.277-5.983v-58.152c0-4.544-0.955-8.395-2.867-11.547
		c-1.91-3.152-4.311-5.727-7.201-7.721c-2.891-1.993-5.898-3.501-9.021-4.521c-3.125-1.02-5.943-1.809-8.459-2.366h-0.84
		c-1.865-0.378-3.428-1.253-4.686-2.624s-1.887-3.143-1.887-5.32c0-2.174,0.766-4.018,2.299-5.527
		c1.531-1.51,3.318-2.268,5.361-2.268c0.557,0,1.021,0.094,1.393,0.278h1.533c4.363,0.749,8.867,2.079,13.509,3.993
		c4.643,1.916,8.916,4.556,12.814,7.918c3.9,3.363,7.08,7.426,9.541,12.189c2.461,4.767,3.691,10.604,3.691,17.516v58.432v0.557
		c0,0.188,0.047,1.323,0.141,3.408c0.09,2.087,0.717,4.568,1.879,7.443c1.16,2.875,3.018,5.819,5.572,8.834
		c2.553,3.014,6.43,5.589,11.631,7.722c0.557,0,1.113,0.278,1.672,0.833c2.318,1.3,3.434,3.387,3.342,6.262
		c0,2.69-1.113,4.777-3.342,6.26c-0.744,0.372-1.209,0.65-1.395,0.835c-5.107,2.133-9.008,4.708-11.699,7.722
		c-2.695,3.015-4.621,5.959-5.781,8.834c-1.162,2.875-1.789,5.356-1.879,7.443c-0.094,2.087-0.141,3.224-0.141,3.408v0.558v53.839
		c0,6.912-1.23,12.749-3.691,17.515c-2.461,4.765-5.641,8.828-9.541,12.192c-3.898,3.36-8.172,5.929-12.814,7.706
		c-4.642,1.774-9.146,3.176-13.509,4.203h-1.533c-0.371,0.185-0.836,0.278-1.393,0.278c-2.137,0-3.947-0.779-5.432-2.337
		C1154.93-1068.753,1154.188-1070.62,1154.188-1072.795z"/>
	
		<text transform="matrix(1 0 0 1 13.688 -562.3486)" fill="#686868" stroke="#686868" stroke-width="8" stroke-linecap="round" stroke-linejoin="round" stroke-miterlimit="10" font-family="'Existence-Light'" font-size="93.5999">codeMath</text>
	
		<text transform="matrix(1 0 0 1 1369.3389 -976.459)" stroke="#000000" stroke-width="5" stroke-linecap="round" stroke-linejoin="round" stroke-miterlimit="10" font-family="'LolitaMedium'" font-size="84.0213">codeMath</text>
	<path stroke="#000000" stroke-width="20" stroke-linecap="round" stroke-linejoin="round" stroke-miterlimit="10" d="
		M1377.798-1200.242c0-2.69,1.113-4.775,3.342-6.26c0.742-0.37,1.207-0.648,1.393-0.835c5.107-2.133,9.006-4.706,11.701-7.72
		c2.691-3.015,4.617-5.959,5.779-8.834c1.16-2.875,1.787-5.355,1.881-7.443c0.092-2.087,0.141-3.223,0.141-3.41v-0.557v-53.84
		c0-6.912,1.229-12.749,3.689-17.516c2.461-4.764,5.643-8.826,9.541-12.189c3.9-3.362,8.172-5.93,12.814-7.706
		c4.642-1.776,9.146-3.178,13.511-4.205h1.531c0.371-0.185,0.836-0.278,1.395-0.278c2.135,0,3.945,0.779,5.432,2.338
		c1.484,1.558,2.229,3.425,2.229,5.6c0,2.176-0.631,3.926-1.889,5.249s-2.82,2.175-4.684,2.553h-0.84
		c-2.516,0.558-5.338,1.347-8.461,2.366c-3.125,1.021-6.13,2.528-9.019,4.521c-2.891,1.994-5.291,4.568-7.203,7.721
		c-1.91,3.152-2.865,7.003-2.865,11.547v53.562c0.186,2.133,0.094,4.662-0.277,7.582c-0.369,2.922-1.229,5.96-2.574,9.113
		c-1.348,3.153-3.111,6.331-5.293,9.53s-5.084,6.237-8.705,9.11c3.807,3.062,6.871,6.261,9.193,9.6
		c2.32,3.339,3.945,6.4,4.875,9.183c1.484,3.989,2.32,7.515,2.504,10.574c0.184,3.061,0.277,5.054,0.277,5.981v58.152
		c0,4.546,0.955,8.394,2.865,11.548c1.912,3.151,4.312,5.726,7.203,7.722c2.889,1.991,5.894,3.499,9.019,4.52
		c3.123,1.019,5.945,1.809,8.461,2.366h0.84c1.863,0.379,3.426,1.254,4.684,2.625s1.889,3.143,1.889,5.318
		c0,2.175-0.766,4.018-2.299,5.53c-1.531,1.509-3.32,2.266-5.361,2.266c-0.559,0-1.023-0.094-1.395-0.278h-1.531
		c-4.365-0.749-8.869-2.079-13.511-3.994c-4.643-1.915-8.914-4.555-12.814-7.915c-3.898-3.364-7.08-7.428-9.541-12.192
		c-2.461-4.766-3.689-10.603-3.689-17.515v-58.432v-0.557c0-0.186-0.049-1.321-0.141-3.408c-0.094-2.085-0.721-4.566-1.881-7.441
		c-1.162-2.875-3.018-5.819-5.57-8.834c-2.555-3.014-6.432-5.589-11.631-7.724c-0.557,0-1.113-0.276-1.672-0.834
		C1378.818-1195.278,1377.705-1197.365,1377.798-1200.242z"/>
	<path stroke="#000000" stroke-width="15" stroke-linecap="round" stroke-linejoin="round" stroke-miterlimit="10" d="
		M1465.55-1192.468c0-3.035,1.045-5.605,3.137-7.718c2.092-2.11,4.641-3.168,7.652-3.168h45.305v-36.54v-4.299
		c0-2.995,1.082-5.566,3.238-7.717c2.154-2.148,4.736-3.226,7.746-3.226c3.006,0,5.557,1.077,7.648,3.226
		c2.09,2.15,3.139,4.722,3.139,7.717v4.299v36.54h45.701c3.006,0,5.588,1.058,7.748,3.168c2.156,2.112,3.234,4.683,3.234,7.718
		c0,3.033-1.078,5.607-3.234,7.72c-2.16,2.111-4.742,3.166-7.748,3.166h-45.701v44.171v0.78c0,2.997-1.078,5.541-3.234,7.626
		c-2.158,2.083-4.678,3.125-7.553,3.125c-3.01,0-5.592-1.072-7.746-3.225c-2.156-2.15-3.238-4.657-3.238-7.526v-44.951h-45.305
		c-3.012,0-5.561-1.088-7.652-3.265C1466.595-1187.022,1465.55-1189.562,1465.55-1192.468z"/>
	<path stroke="#000000" stroke-width="20" stroke-linecap="round" stroke-linejoin="round" stroke-miterlimit="10" d="
		M1611.243-1072.795c0-2.176,0.629-3.926,1.887-5.247c1.258-1.325,2.82-2.176,4.686-2.555h0.839
		c2.516-0.558,5.334-1.348,8.459-2.366c3.123-1.021,6.131-2.528,9.021-4.52c2.891-1.996,5.291-4.57,7.201-7.722
		c1.912-3.154,2.867-7.002,2.867-11.548v-53.562c-0.188-2.133-0.094-4.66,0.277-7.581c0.369-2.92,1.227-5.958,2.574-9.112
		c1.344-3.153,3.109-6.331,5.293-9.53c2.18-3.199,5.084-6.237,8.705-9.112c-3.809-3.06-6.873-6.262-9.193-9.6
		c-2.322-3.339-3.947-6.398-4.875-9.183c-1.486-3.986-2.322-7.513-2.504-10.572c-0.186-3.06-0.277-5.056-0.277-5.983v-58.152
		c0-4.544-0.955-8.395-2.867-11.547c-1.91-3.152-4.311-5.727-7.201-7.721c-2.891-1.993-5.898-3.501-9.021-4.521
		c-3.125-1.02-5.943-1.809-8.459-2.366h-0.839c-1.865-0.378-3.428-1.253-4.686-2.624s-1.887-3.143-1.887-5.32
		c0-2.174,0.766-4.018,2.299-5.527c1.531-1.51,3.318-2.268,5.361-2.268c0.557,0,1.021,0.094,1.393,0.278h1.533
		c4.363,0.749,8.867,2.079,13.51,3.993c4.643,1.916,8.916,4.556,12.814,7.918c3.9,3.363,7.08,7.426,9.541,12.189
		c2.461,4.767,3.691,10.604,3.691,17.516v58.432v0.557c0,0.188,0.047,1.323,0.141,3.408c0.09,2.087,0.717,4.568,1.879,7.443
		c1.16,2.875,3.018,5.819,5.572,8.834c2.553,3.014,6.43,5.589,11.631,7.722c0.557,0,1.113,0.278,1.672,0.833
		c2.318,1.3,3.434,3.387,3.342,6.262c0,2.69-1.113,4.777-3.342,6.26c-0.744,0.372-1.209,0.65-1.395,0.835
		c-5.107,2.133-9.008,4.708-11.699,7.722c-2.695,3.015-4.621,5.959-5.781,8.834c-1.162,2.875-1.789,5.356-1.879,7.443
		c-0.094,2.087-0.141,3.224-0.141,3.408v0.558v53.839c0,6.912-1.23,12.749-3.691,17.515c-2.461,4.765-5.641,8.828-9.541,12.192
		c-3.898,3.36-8.172,5.929-12.814,7.706c-4.643,1.774-9.146,3.176-13.51,4.203h-1.533c-0.371,0.185-0.836,0.278-1.393,0.278
		c-2.136,0-3.947-0.779-5.431-2.337C1611.985-1068.753,1611.243-1070.62,1611.243-1072.795z"/>
	
		<text transform="matrix(1 0 0 1 474.1284 -555.5693)" stroke="#000000" stroke-width="3" stroke-linecap="round" stroke-linejoin="round" stroke-miterlimit="10" font-family="'LolitaMedium'" font-size="112.0663">codeMath</text>
	<g>
		<path fill="#444344" stroke="#444344" stroke-width="20" stroke-miterlimit="10" d="M535.997-788.132
			c0-2.69,1.113-4.775,3.342-6.26c0.742-0.37,1.207-0.648,1.393-0.835c5.107-2.133,9.006-4.706,11.701-7.72
			c2.691-3.015,4.617-5.959,5.779-8.834c1.16-2.875,1.787-5.355,1.881-7.443c0.092-2.087,0.141-3.223,0.141-3.41v-0.557v-53.839
			c0-6.912,1.229-12.75,3.689-17.516c2.461-4.765,5.643-8.828,9.541-12.19c3.9-3.362,8.172-5.931,12.814-7.706
			c4.642-1.776,9.146-3.178,13.512-4.205h1.531c0.371-0.186,0.836-0.278,1.395-0.278c2.134,0,3.945,0.778,5.432,2.337
			c1.484,1.559,2.229,3.426,2.229,5.6c0,2.177-0.631,3.927-1.89,5.25c-1.257,1.323-2.819,2.174-4.683,2.553h-0.84
			c-2.516,0.557-5.338,1.348-8.461,2.365c-3.125,1.021-6.131,2.529-9.021,4.523c-2.89,1.993-5.29,4.568-7.202,7.719
			c-1.91,3.154-2.865,7.004-2.865,11.549v53.562c0.186,2.133,0.094,4.662-0.278,7.582c-0.368,2.922-1.228,5.96-2.573,9.113
			c-1.348,3.153-3.112,6.331-5.294,9.53c-2.181,3.199-5.084,6.237-8.704,9.11c3.807,3.062,6.871,6.261,9.193,9.6
			c2.32,3.339,3.944,6.4,4.874,9.183c1.485,3.989,2.32,7.515,2.504,10.574c0.185,3.061,0.278,5.054,0.278,5.981v58.152
			c0,4.546,0.955,8.394,2.865,11.548c1.912,3.151,4.312,5.726,7.202,7.722c2.89,1.991,5.896,3.499,9.021,4.52
			c3.123,1.019,5.945,1.809,8.461,2.366h0.84c1.863,0.379,3.426,1.254,4.683,2.625c1.259,1.371,1.89,3.143,1.89,5.318
			c0,2.175-0.766,4.018-2.299,5.53c-1.531,1.509-3.32,2.266-5.361,2.266c-0.559,0-1.023-0.094-1.395-0.278h-1.531
			c-4.365-0.749-8.87-2.079-13.512-3.994c-4.643-1.915-8.914-4.555-12.814-7.915c-3.898-3.364-7.08-7.428-9.541-12.192
			c-2.461-4.766-3.689-10.603-3.689-17.515v-58.432v-0.557c0-0.186-0.049-1.321-0.141-3.408c-0.094-2.085-0.721-4.566-1.881-7.441
			c-1.162-2.875-3.018-5.819-5.57-8.834c-2.555-3.014-6.432-5.589-11.631-7.724c-0.558,0-1.113-0.276-1.672-0.834
			C537.017-783.168,535.902-785.255,535.997-788.132z"/>
		<path fill="#7E4FA0" stroke="#7E4FA0" stroke-width="15" stroke-miterlimit="10" d="M623.748-780.357
			c0-3.035,1.045-5.605,3.137-7.718c2.092-2.11,4.642-3.168,7.653-3.168h45.305v-36.54v-4.299c0-2.995,1.081-5.566,3.237-7.717
			c2.156-2.148,4.738-3.226,7.747-3.226c3.006,0,5.556,1.077,7.648,3.226c2.09,2.15,3.139,4.722,3.139,7.717v4.299v36.54h45.701
			c3.005,0,5.587,1.058,7.747,3.168c2.156,2.112,3.234,4.683,3.234,7.718c0,3.033-1.078,5.607-3.234,7.72
			c-2.16,2.111-4.742,3.166-7.747,3.166h-45.701v44.171v0.78c0,2.997-1.079,5.541-3.234,7.626c-2.159,2.083-4.679,3.125-7.553,3.125
			c-3.009,0-5.591-1.072-7.747-3.225c-2.156-2.15-3.237-4.657-3.237-7.526v-44.951h-45.305c-3.012,0-5.562-1.088-7.653-3.265
			C624.793-774.912,623.748-777.452,623.748-780.357z"/>
		<path fill="#444344" stroke="#444344" stroke-width="20" stroke-miterlimit="10" d="M769.442-660.685
			c0-2.176,0.628-3.926,1.887-5.247c1.259-1.325,2.82-2.176,4.686-2.555h0.839c2.517-0.558,5.335-1.348,8.46-2.366
			c3.123-1.021,6.131-2.528,9.021-4.52c2.891-1.996,5.291-4.57,7.2-7.722c1.913-3.154,2.867-7.002,2.867-11.548v-53.562
			c-0.187-2.133-0.093-4.66,0.278-7.581c0.369-2.92,1.227-5.958,2.574-9.112c1.344-3.153,3.109-6.331,5.293-9.53
			c2.18-3.199,5.084-6.237,8.705-9.112c-3.809-3.06-6.873-6.262-9.193-9.6c-2.322-3.339-3.947-6.398-4.875-9.183
			c-1.486-3.986-2.322-7.513-2.504-10.572c-0.186-3.06-0.278-5.056-0.278-5.983v-58.151c0-4.545-0.954-8.395-2.867-11.549
			c-1.909-3.15-4.31-5.726-7.2-7.719c-2.891-1.994-5.898-3.502-9.021-4.523c-3.125-1.018-5.943-1.809-8.46-2.365h-0.839
			c-1.865-0.379-3.427-1.254-4.686-2.625s-1.887-3.143-1.887-5.318c0-2.174,0.766-4.018,2.299-5.528
			c1.531-1.511,3.318-2.268,5.36-2.268c0.558,0,1.022,0.093,1.394,0.278h1.533c4.363,0.749,8.867,2.078,13.51,3.994
			c4.643,1.915,8.915,4.555,12.814,7.917c3.9,3.362,7.08,7.426,9.541,12.19c2.46,4.766,3.691,10.604,3.691,17.516v58.431v0.557
			c0,0.188,0.047,1.323,0.141,3.408c0.09,2.087,0.717,4.568,1.878,7.443s3.019,5.819,5.573,8.834
			c2.553,3.014,6.43,5.589,11.631,7.722c0.557,0,1.112,0.278,1.672,0.833c2.318,1.3,3.434,3.387,3.341,6.262
			c0,2.69-1.112,4.777-3.341,6.26c-0.745,0.372-1.21,0.65-1.395,0.835c-5.107,2.133-9.008,4.708-11.7,7.722
			c-2.694,3.015-4.62,5.959-5.781,8.834s-1.788,5.356-1.878,7.443c-0.094,2.087-0.141,3.224-0.141,3.408v0.558v53.839
			c0,6.912-1.231,12.749-3.691,17.515c-2.461,4.765-5.641,8.828-9.541,12.192c-3.899,3.36-8.172,5.929-12.814,7.706
			c-4.643,1.774-9.146,3.176-13.51,4.203h-1.533c-0.371,0.185-0.836,0.278-1.394,0.278c-2.136,0-3.946-0.779-5.432-2.337
			C770.185-656.643,769.442-658.51,769.442-660.685z"/>
	</g>
	<g>
		
			<path fill="#686868" stroke="#686868" stroke-width="20" stroke-linecap="round" stroke-linejoin="round" stroke-miterlimit="10" d="
			M58.674-788.132c0-2.69,1.113-4.775,3.342-6.26c0.742-0.37,1.207-0.648,1.393-0.835c5.107-2.133,9.006-4.706,11.701-7.72
			c2.691-3.015,4.617-5.959,5.779-8.834c1.16-2.875,1.787-5.355,1.881-7.443c0.092-2.087,0.141-3.223,0.141-3.41v-0.557v-53.839
			c0-6.912,1.229-12.75,3.689-17.516c2.461-4.765,5.643-8.828,9.541-12.19c3.9-3.362,8.172-5.931,12.814-7.706
			c4.643-1.776,9.146-3.178,13.512-4.205h1.531c0.371-0.186,0.836-0.278,1.395-0.278c2.135,0,3.945,0.778,5.432,2.337
			c1.484,1.559,2.229,3.426,2.229,5.6c0,2.177-0.631,3.927-1.889,5.25s-2.82,2.174-4.684,2.553h-0.84
			c-2.516,0.557-5.338,1.348-8.461,2.365c-3.125,1.021-6.131,2.529-9.02,4.523c-2.891,1.993-5.291,4.568-7.203,7.719
			c-1.91,3.154-2.865,7.004-2.865,11.549v53.562c0.186,2.133,0.094,4.662-0.277,7.582c-0.369,2.922-1.229,5.96-2.574,9.113
			c-1.348,3.153-3.111,6.331-5.293,9.53s-5.084,6.237-8.705,9.11c3.807,3.062,6.871,6.261,9.193,9.6
			c2.32,3.339,3.945,6.4,4.875,9.183c1.484,3.989,2.32,7.515,2.504,10.574c0.184,3.061,0.277,5.054,0.277,5.981v58.152
			c0,4.546,0.955,8.394,2.865,11.548c1.912,3.151,4.312,5.726,7.203,7.722c2.889,1.991,5.895,3.499,9.02,4.52
			c3.123,1.019,5.945,1.809,8.461,2.366h0.84c1.863,0.379,3.426,1.254,4.684,2.625s1.889,3.143,1.889,5.318
			c0,2.175-0.766,4.018-2.299,5.53c-1.531,1.509-3.32,2.266-5.361,2.266c-0.559,0-1.023-0.094-1.395-0.278h-1.531
			c-4.365-0.749-8.869-2.079-13.512-3.994s-8.914-4.555-12.814-7.915c-3.898-3.364-7.08-7.428-9.541-12.192
			c-2.461-4.766-3.689-10.603-3.689-17.515v-58.432v-0.557c0-0.186-0.049-1.321-0.141-3.408c-0.094-2.085-0.721-4.566-1.881-7.441
			c-1.162-2.875-3.018-5.819-5.57-8.834c-2.555-3.014-6.432-5.589-11.631-7.724c-0.557,0-1.113-0.276-1.672-0.834
			C59.693-783.168,58.58-785.255,58.674-788.132z"/>
		<path fill="#7E4FA0" stroke="#7E4FA0" stroke-width="15" stroke-miterlimit="10" d="M146.425-780.357
			c0-3.035,1.045-5.605,3.138-7.718c2.091-2.11,4.641-3.168,7.652-3.168h45.305v-36.54v-4.299c0-2.995,1.081-5.566,3.237-7.717
			c2.156-2.148,4.738-3.226,7.747-3.226c3.006,0,5.556,1.077,7.648,3.226c2.09,2.15,3.139,4.722,3.139,7.717v4.299v36.54h45.701
			c3.006,0,5.588,1.058,7.747,3.168c2.156,2.112,3.234,4.683,3.234,7.718c0,3.033-1.078,5.607-3.234,7.72
			c-2.159,2.111-4.741,3.166-7.747,3.166h-45.701v44.171v0.78c0,2.997-1.078,5.541-3.234,7.626
			c-2.159,2.083-4.679,3.125-7.553,3.125c-3.009,0-5.591-1.072-7.747-3.225c-2.156-2.15-3.237-4.657-3.237-7.526v-44.951h-45.305
			c-3.012,0-5.562-1.088-7.652-3.265C147.47-774.912,146.425-777.452,146.425-780.357z"/>
		
			<path fill="#686868" stroke="#686868" stroke-width="20" stroke-linecap="round" stroke-linejoin="round" stroke-miterlimit="10" d="
			M292.119-660.685c0-2.176,0.629-3.926,1.887-5.247c1.258-1.325,2.82-2.176,4.686-2.555h0.84c2.516-0.558,5.334-1.348,8.459-2.366
			c3.123-1.021,6.131-2.528,9.021-4.52c2.891-1.996,5.291-4.57,7.201-7.722c1.912-3.154,2.867-7.002,2.867-11.548v-53.562
			c-0.188-2.133-0.094-4.66,0.277-7.581c0.369-2.92,1.227-5.958,2.574-9.112c1.344-3.153,3.109-6.331,5.293-9.53
			c2.18-3.199,5.084-6.237,8.705-9.112c-3.809-3.06-6.873-6.262-9.193-9.6c-2.322-3.339-3.947-6.398-4.875-9.183
			c-1.486-3.986-2.322-7.513-2.504-10.572c-0.186-3.06-0.277-5.056-0.277-5.983v-58.151c0-4.545-0.955-8.395-2.867-11.549
			c-1.91-3.15-4.311-5.726-7.201-7.719c-2.891-1.994-5.898-3.502-9.021-4.523c-3.125-1.018-5.943-1.809-8.459-2.365h-0.84
			c-1.865-0.379-3.428-1.254-4.686-2.625s-1.887-3.143-1.887-5.318c0-2.174,0.766-4.018,2.299-5.528
			c1.531-1.511,3.318-2.268,5.361-2.268c0.557,0,1.021,0.093,1.393,0.278h1.533c4.363,0.749,8.867,2.078,13.51,3.994
			c4.643,1.915,8.916,4.555,12.814,7.917c3.9,3.362,7.08,7.426,9.541,12.19c2.461,4.766,3.691,10.604,3.691,17.516v58.431v0.557
			c0,0.188,0.047,1.323,0.141,3.408c0.09,2.087,0.717,4.568,1.879,7.443c1.16,2.875,3.018,5.819,5.572,8.834
			c2.553,3.014,6.43,5.589,11.631,7.722c0.557,0,1.113,0.278,1.672,0.833c2.318,1.3,3.434,3.387,3.342,6.262
			c0,2.69-1.113,4.777-3.342,6.26c-0.744,0.372-1.209,0.65-1.395,0.835c-5.107,2.133-9.008,4.708-11.699,7.722
			c-2.695,3.015-4.621,5.959-5.781,8.834c-1.162,2.875-1.789,5.356-1.879,7.443c-0.094,2.087-0.141,3.224-0.141,3.408v0.558v53.839
			c0,6.912-1.23,12.749-3.691,17.515c-2.461,4.765-5.641,8.828-9.541,12.192c-3.898,3.36-8.172,5.929-12.814,7.706
			c-4.643,1.774-9.146,3.176-13.51,4.203h-1.533c-0.371,0.185-0.836,0.278-1.393,0.278c-2.137,0-3.947-0.779-5.432-2.337
			C292.861-656.643,292.119-658.51,292.119-660.685z"/>
	</g>
	
		<text transform="matrix(1 0 0 1 13.688 -146.2432)" fill="#686868" stroke="#686868" stroke-width="6" stroke-linecap="round" stroke-linejoin="round" stroke-miterlimit="10" font-family="'Existence-Light'" font-size="93.5999">codeMath</text>
	
		<path fill="#686868" stroke="#686868" stroke-width="20" stroke-linecap="round" stroke-linejoin="round" stroke-miterlimit="10" d="
		M58.674-372.026c0-2.69,1.113-4.775,3.342-6.26c0.742-0.37,1.207-0.648,1.393-0.835c5.107-2.133,9.006-4.706,11.701-7.72
		c2.691-3.015,4.617-5.959,5.779-8.834c1.16-2.875,1.787-5.356,1.881-7.443c0.092-2.087,0.141-3.224,0.141-3.41v-0.558v-53.838
		c0-6.912,1.229-12.75,3.689-17.516c2.461-4.765,5.643-8.828,9.541-12.19c3.9-3.362,8.172-5.931,12.814-7.706
		c4.643-1.776,9.146-3.178,13.512-4.205h1.531c0.371-0.186,0.836-0.278,1.395-0.278c2.135,0,3.945,0.778,5.432,2.337
		c1.484,1.559,2.229,3.426,2.229,5.6c0,2.177-0.631,3.927-1.889,5.25s-2.82,2.174-4.684,2.553h-0.84
		c-2.516,0.557-5.338,1.348-8.461,2.365c-3.125,1.021-6.131,2.529-9.02,4.523c-2.891,1.993-5.291,4.568-7.203,7.719
		c-1.91,3.154-2.865,7.004-2.865,11.549v53.562c0.186,2.133,0.094,4.661-0.277,7.582c-0.369,2.921-1.229,5.959-2.574,9.112
		c-1.348,3.153-3.111,6.331-5.293,9.53s-5.084,6.237-8.705,9.11c3.807,3.062,6.871,6.261,9.193,9.6
		c2.32,3.339,3.945,6.4,4.875,9.183c1.484,3.989,2.32,7.515,2.504,10.574c0.184,3.061,0.277,5.054,0.277,5.981v58.152
		c0,4.546,0.955,8.394,2.865,11.548c1.912,3.151,4.312,5.726,7.203,7.722c2.889,1.991,5.895,3.499,9.02,4.52
		c3.123,1.019,5.945,1.809,8.461,2.366h0.84c1.863,0.379,3.426,1.254,4.684,2.625s1.889,3.143,1.889,5.318
		c0,2.175-0.766,4.018-2.299,5.53c-1.531,1.509-3.32,2.266-5.361,2.266c-0.559,0-1.023-0.094-1.395-0.278h-1.531
		c-4.365-0.749-8.869-2.079-13.512-3.994s-8.914-4.555-12.814-7.915c-3.898-3.364-7.08-7.428-9.541-12.192
		c-2.461-4.766-3.689-10.603-3.689-17.515v-58.432v-0.557c0-0.186-0.049-1.321-0.141-3.408c-0.094-2.085-0.721-4.566-1.881-7.441
		c-1.162-2.875-3.018-5.819-5.57-8.834c-2.555-3.014-6.432-5.589-11.631-7.724c-0.557,0-1.113-0.276-1.672-0.834
		C59.693-367.062,58.58-369.149,58.674-372.026z"/>
	<path fill="#40C0BE" stroke="#40C0BE" stroke-width="15" stroke-miterlimit="10" d="M146.425-364.252
		c0-3.035,1.045-5.605,3.138-7.718c2.091-2.11,4.641-3.168,7.652-3.168h45.305v-36.54v-4.299c0-2.994,1.081-5.566,3.237-7.717
		c2.156-2.148,4.738-3.225,7.747-3.225c3.006,0,5.556,1.076,7.648,3.225c2.09,2.15,3.139,4.723,3.139,7.717v4.299v36.54h45.701
		c3.006,0,5.588,1.058,7.747,3.168c2.156,2.112,3.234,4.683,3.234,7.718c0,3.033-1.078,5.607-3.234,7.72
		c-2.159,2.111-4.741,3.166-7.747,3.166h-45.701v44.171v0.78c0,2.997-1.078,5.541-3.234,7.626c-2.159,2.083-4.679,3.125-7.553,3.125
		c-3.009,0-5.591-1.072-7.747-3.225c-2.156-2.15-3.237-4.657-3.237-7.526v-44.951h-45.305c-3.012,0-5.562-1.088-7.652-3.265
		C147.47-358.807,146.425-361.347,146.425-364.252z"/>
	
		<path fill="#686868" stroke="#686868" stroke-width="20" stroke-linecap="round" stroke-linejoin="round" stroke-miterlimit="10" d="
		M292.119-244.579c0-2.176,0.629-3.926,1.887-5.247c1.258-1.325,2.82-2.176,4.686-2.555h0.84c2.516-0.558,5.334-1.348,8.459-2.366
		c3.123-1.021,6.131-2.528,9.021-4.52c2.891-1.996,5.291-4.57,7.201-7.722c1.912-3.154,2.867-7.002,2.867-11.548v-53.562
		c-0.188-2.133-0.094-4.66,0.277-7.581c0.369-2.92,1.227-5.958,2.574-9.112c1.344-3.153,3.109-6.331,5.293-9.53
		c2.18-3.199,5.084-6.237,8.705-9.112c-3.809-3.06-6.873-6.262-9.193-9.6c-2.322-3.339-3.947-6.398-4.875-9.183
		c-1.486-3.986-2.322-7.513-2.504-10.572c-0.186-3.061-0.277-5.056-0.277-5.982v-58.152c0-4.545-0.955-8.395-2.867-11.549
		c-1.91-3.15-4.311-5.726-7.201-7.719c-2.891-1.994-5.898-3.502-9.021-4.523c-3.125-1.018-5.943-1.809-8.459-2.365h-0.84
		c-1.865-0.379-3.428-1.254-4.686-2.625s-1.887-3.143-1.887-5.318c0-2.174,0.766-4.018,2.299-5.528
		c1.531-1.511,3.318-2.268,5.361-2.268c0.557,0,1.021,0.093,1.393,0.278h1.533c4.363,0.749,8.867,2.078,13.51,3.994
		c4.643,1.915,8.916,4.555,12.814,7.917c3.9,3.362,7.08,7.426,9.541,12.19c2.461,4.766,3.691,10.604,3.691,17.516v58.43v0.558
		c0,0.188,0.047,1.323,0.141,3.408c0.09,2.087,0.717,4.568,1.879,7.443c1.16,2.875,3.018,5.819,5.572,8.834
		c2.553,3.014,6.43,5.589,11.631,7.722c0.557,0,1.113,0.278,1.672,0.833c2.318,1.3,3.434,3.387,3.342,6.262
		c0,2.69-1.113,4.777-3.342,6.26c-0.744,0.372-1.209,0.65-1.395,0.835c-5.107,2.133-9.008,4.708-11.699,7.722
		c-2.695,3.015-4.621,5.959-5.781,8.834c-1.162,2.875-1.789,5.356-1.879,7.443c-0.094,2.087-0.141,3.224-0.141,3.408v0.558v53.839
		c0,6.912-1.23,12.749-3.691,17.515c-2.461,4.765-5.641,8.828-9.541,12.192c-3.898,3.36-8.172,5.929-12.814,7.706
		c-4.643,1.774-9.146,3.176-13.51,4.203h-1.533c-0.371,0.185-0.836,0.278-1.393,0.278c-2.137,0-3.947-0.779-5.432-2.337
		C292.861-240.537,292.119-242.404,292.119-244.579z"/>
	
		<text transform="matrix(1 0 0 1 990.7422 -551.5479)" fill="#686868" stroke="#686868" stroke-width="7" stroke-linecap="round" stroke-linejoin="round" stroke-miterlimit="10" font-family="'Existence-Light'" font-size="116.4052">codeMath</text>
	
		<path fill="#686868" stroke="#686868" stroke-width="20" stroke-linecap="round" stroke-linejoin="round" stroke-miterlimit="10" d="
		M1084.189-804.173c0-2.69,1.113-4.775,3.342-6.26c0.742-0.37,1.207-0.648,1.393-0.835c5.107-2.133,9.006-4.706,11.701-7.72
		c2.691-3.015,4.617-5.959,5.779-8.834c1.16-2.875,1.787-5.356,1.881-7.443c0.092-2.087,0.141-3.224,0.141-3.41v-0.558v-53.838
		c0-6.912,1.229-12.75,3.689-17.516c2.461-4.765,5.643-8.828,9.541-12.19c3.9-3.362,8.172-5.931,12.814-7.706
		c4.643-1.776,9.146-3.178,13.512-4.205h1.531c0.371-0.186,0.836-0.278,1.395-0.278c2.135,0,3.945,0.778,5.432,2.337
		c1.484,1.559,2.229,3.426,2.229,5.6c0,2.177-0.631,3.927-1.889,5.25s-2.82,2.174-4.684,2.553h-0.84
		c-2.516,0.557-5.338,1.348-8.461,2.365c-3.125,1.021-6.131,2.529-9.02,4.523c-2.891,1.993-5.291,4.568-7.203,7.719
		c-1.91,3.154-2.865,7.004-2.865,11.549v53.562c0.186,2.133,0.094,4.661-0.277,7.582c-0.369,2.921-1.229,5.959-2.574,9.112
		c-1.348,3.153-3.111,6.331-5.293,9.53s-5.084,6.237-8.705,9.11c3.807,3.062,6.871,6.261,9.193,9.6
		c2.32,3.339,3.945,6.4,4.875,9.183c1.484,3.989,2.32,7.515,2.504,10.574c0.184,3.061,0.277,5.054,0.277,5.981v58.152
		c0,4.546,0.955,8.394,2.865,11.548c1.912,3.151,4.312,5.726,7.203,7.722c2.889,1.991,5.895,3.499,9.02,4.52
		c3.123,1.019,5.945,1.809,8.461,2.366h0.84c1.863,0.379,3.426,1.254,4.684,2.625s1.889,3.143,1.889,5.318
		c0,2.175-0.766,4.018-2.299,5.53c-1.531,1.509-3.32,2.266-5.361,2.266c-0.559,0-1.023-0.094-1.395-0.278h-1.531
		c-4.365-0.749-8.869-2.079-13.512-3.994s-8.914-4.555-12.814-7.915c-3.898-3.364-7.08-7.428-9.541-12.192
		c-2.461-4.766-3.689-10.603-3.689-17.515v-58.432v-0.557c0-0.186-0.049-1.321-0.141-3.408c-0.094-2.085-0.721-4.566-1.881-7.441
		c-1.162-2.875-3.018-5.819-5.57-8.834c-2.555-3.014-6.432-5.589-11.631-7.724c-0.557,0-1.113-0.276-1.672-0.834
		C1085.209-799.209,1084.096-801.296,1084.189-804.173z"/>
	<path fill="#40C0BE" stroke="#40C0BE" stroke-width="15" stroke-miterlimit="10" d="M1171.94-796.398
		c0-3.035,1.045-5.605,3.137-7.718c2.092-2.11,4.641-3.168,7.652-3.168h45.305v-36.54v-4.299c0-2.994,1.082-5.566,3.238-7.717
		c2.156-2.148,4.738-3.225,7.746-3.225c3.006,0,5.557,1.076,7.648,3.225c2.09,2.15,3.139,4.723,3.139,7.717v4.299v36.54h45.701
		c3.006,0,5.588,1.058,7.746,3.168c2.158,2.112,3.236,4.683,3.236,7.718c0,3.033-1.078,5.607-3.236,7.72
		c-2.158,2.111-4.74,3.166-7.746,3.166h-45.701v44.171v0.78c0,2.997-1.078,5.541-3.234,7.626c-2.158,2.083-4.678,3.125-7.553,3.125
		c-3.008,0-5.59-1.072-7.746-3.225c-2.156-2.15-3.238-4.657-3.238-7.526v-44.951h-45.305c-3.012,0-5.561-1.088-7.652-3.265
		C1172.985-790.953,1171.94-793.493,1171.94-796.398z"/>
	
		<path fill="#686868" stroke="#686868" stroke-width="20" stroke-linecap="round" stroke-linejoin="round" stroke-miterlimit="10" d="
		M1317.634-676.726c0-2.176,0.629-3.926,1.887-5.247c1.258-1.325,2.82-2.176,4.686-2.555h0.84c2.516-0.558,5.334-1.348,8.459-2.366
		c3.123-1.021,6.131-2.528,9.021-4.52c2.891-1.996,5.291-4.57,7.201-7.722c1.912-3.154,2.867-7.002,2.867-11.548v-53.562
		c-0.188-2.133-0.094-4.66,0.277-7.581c0.369-2.92,1.227-5.958,2.574-9.112c1.344-3.153,3.109-6.331,5.293-9.53
		c2.18-3.199,5.084-6.237,8.705-9.112c-3.809-3.06-6.873-6.262-9.193-9.6c-2.322-3.339-3.947-6.398-4.875-9.183
		c-1.486-3.986-2.322-7.513-2.504-10.572c-0.186-3.061-0.277-5.056-0.277-5.982v-58.152c0-4.545-0.955-8.395-2.867-11.549
		c-1.91-3.15-4.311-5.726-7.201-7.719c-2.891-1.994-5.898-3.502-9.021-4.523c-3.125-1.018-5.943-1.809-8.459-2.365h-0.84
		c-1.865-0.379-3.428-1.254-4.686-2.625s-1.887-3.143-1.887-5.318c0-2.174,0.766-4.018,2.299-5.528
		c1.531-1.511,3.318-2.268,5.361-2.268c0.557,0,1.021,0.093,1.393,0.278h1.533c4.363,0.749,8.867,2.078,13.51,3.994
		c4.643,1.915,8.916,4.555,12.814,7.917c3.9,3.362,7.08,7.426,9.541,12.19c2.461,4.766,3.691,10.604,3.691,17.516v58.43v0.558
		c0,0.188,0.047,1.323,0.141,3.408c0.09,2.087,0.717,4.568,1.879,7.443c1.16,2.875,3.018,5.819,5.572,8.834
		c2.553,3.014,6.43,5.589,11.631,7.722c0.557,0,1.113,0.278,1.672,0.833c2.318,1.3,3.434,3.387,3.342,6.262
		c0,2.69-1.113,4.777-3.342,6.26c-0.744,0.372-1.209,0.65-1.395,0.835c-5.107,2.133-9.008,4.708-11.699,7.722
		c-2.695,3.015-4.621,5.959-5.781,8.834c-1.162,2.875-1.789,5.356-1.879,7.443c-0.094,2.087-0.141,3.224-0.141,3.408v0.558v53.839
		c0,6.912-1.23,12.749-3.691,17.515c-2.461,4.765-5.641,8.828-9.541,12.192c-3.898,3.36-8.172,5.929-12.814,7.706
		c-4.643,1.774-9.146,3.176-13.51,4.203h-1.533c-0.371,0.185-0.836,0.278-1.393,0.278c-2.137,0-3.947-0.779-5.432-2.337
		C1318.376-672.684,1317.634-674.551,1317.634-676.726z"/>
	<rect x="1609.937" y="-581.418" width="78" height="78"/>
	<rect x="1608.937" y="-581.418" fill="#40C0BE" width="78" height="78"/>
	<rect x="1608.937" y="-491.162" fill="#7E4FA0" width="78" height="77.999"/>
	<rect x="1609.937" y="-401.162" fill="#CD6439" width="78" height="77.999"/>
	<rect x="1609.937" y="-311.162" fill="#CCCC38" width="78" height="77.999"/>
	<rect x="1609.937" y="-221.162" width="78" height="77.999"/>
	
		<text transform="matrix(1 0 0 1 55.4731 121.4248)" fill="#686868" stroke="#686868" stroke-width="2" stroke-linecap="round" stroke-linejoin="round" stroke-miterlimit="10" font-family="'Existence-Light'" font-size="30.6266">codeMath</text>
	
		<path fill="#686868" stroke="#686868" stroke-width="6" stroke-linecap="round" stroke-linejoin="round" stroke-miterlimit="10" d="
		M80.059,54.959c0-0.708,0.294-1.256,0.88-1.646c0.196-0.098,0.317-0.17,0.366-0.22c1.344-0.562,2.37-1.237,3.079-2.031
		c0.709-0.793,1.215-1.567,1.521-2.324c0.305-0.757,0.471-1.408,0.495-1.958s0.037-0.848,0.037-0.897v-0.147V31.57
		c0-1.819,0.324-3.355,0.971-4.609c0.648-1.253,1.485-2.321,2.511-3.207c1.026-0.884,2.151-1.559,3.372-2.027
		c1.221-0.467,2.406-0.836,3.555-1.105h0.403c0.097-0.049,0.22-0.073,0.367-0.073c0.561,0,1.038,0.204,1.429,0.615
		c0.39,0.41,0.586,0.9,0.586,1.473s-0.166,1.033-0.497,1.381c-0.332,0.349-0.742,0.572-1.232,0.671h-0.221
		c-0.662,0.147-1.405,0.355-2.226,0.623c-0.822,0.269-1.613,0.666-2.374,1.19s-1.392,1.201-1.895,2.031
		c-0.502,0.829-0.754,1.842-0.754,3.038v14.092c0.049,0.562,0.025,1.227-0.073,1.995c-0.097,0.769-0.322,1.568-0.677,2.397
		c-0.354,0.83-0.818,1.667-1.393,2.508c-0.574,0.84-1.337,1.641-2.29,2.396c1.002,0.806,1.807,1.648,2.418,2.525
		c0.61,0.879,1.038,1.685,1.283,2.417c0.391,1.05,0.61,1.977,0.658,2.782c0.049,0.805,0.073,1.33,0.073,1.573v15.301
		c0,1.195,0.252,2.208,0.754,3.038c0.503,0.829,1.135,1.506,1.895,2.032c0.76,0.523,1.551,0.921,2.374,1.188
		c0.821,0.268,1.564,0.475,2.226,0.622H97.9c0.491,0.099,0.901,0.329,1.232,0.691c0.331,0.36,0.497,0.826,0.497,1.398
		s-0.202,1.058-0.604,1.456c-0.403,0.396-0.874,0.596-1.411,0.596c-0.147,0-0.27-0.025-0.367-0.073h-0.403
		c-1.149-0.198-2.334-0.548-3.555-1.052c-1.221-0.504-2.346-1.197-3.372-2.082c-1.025-0.886-1.863-1.954-2.511-3.208
		c-0.647-1.253-0.971-2.789-0.971-4.607V64.184v-0.146c0-0.049-0.013-0.348-0.037-0.896s-0.189-1.201-0.495-1.958
		c-0.306-0.757-0.795-1.53-1.466-2.324c-0.671-0.793-1.692-1.47-3.06-2.031c-0.146,0-0.293-0.074-0.44-0.22
		C80.328,56.266,80.036,55.718,80.059,54.959z"/>
	<path fill="#40C0BE" stroke="#40C0BE" stroke-width="6" stroke-miterlimit="10" d="M103.147,57.006c0-0.8,0.275-1.477,0.825-2.032
		c0.551-0.555,1.221-0.834,2.014-0.834h11.919v-9.613v-1.131c0-0.787,0.284-1.464,0.852-2.029c0.567-0.565,1.247-0.849,2.039-0.849
		c0.791,0,1.462,0.283,2.012,0.849c0.55,0.565,0.826,1.242,0.826,2.029v1.131v9.613h12.024c0.791,0,1.47,0.279,2.038,0.834
		c0.568,0.556,0.852,1.232,0.852,2.032c0,0.797-0.283,1.475-0.852,2.03c-0.568,0.555-1.247,0.833-2.038,0.833h-12.024V71.49v0.205
		c0,0.79-0.284,1.459-0.851,2.007c-0.568,0.549-1.23,0.822-1.987,0.822c-0.792,0-1.471-0.281-2.039-0.849
		c-0.568-0.566-0.852-1.225-0.852-1.98V59.869h-11.919c-0.792,0-1.463-0.287-2.014-0.859
		C103.422,58.438,103.147,57.77,103.147,57.006z"/>
	
		<path fill="#686868" stroke="#686868" stroke-width="6" stroke-linecap="round" stroke-linejoin="round" stroke-miterlimit="10" d="
		M141.48,88.491c0-0.573,0.165-1.034,0.496-1.38c0.332-0.35,0.742-0.574,1.233-0.673h0.221c0.662-0.147,1.403-0.354,2.226-0.622
		c0.822-0.268,1.613-0.665,2.374-1.188c0.761-0.526,1.392-1.203,1.895-2.032c0.503-0.83,0.755-1.843,0.755-3.038V65.466
		c-0.05-0.562-0.025-1.228,0.072-1.996c0.098-0.767,0.324-1.567,0.678-2.397c0.353-0.83,0.818-1.666,1.392-2.508
		c0.573-0.842,1.337-1.641,2.291-2.396c-1.001-0.805-1.809-1.647-2.418-2.526c-0.611-0.878-1.039-1.684-1.284-2.416
		c-0.39-1.049-0.61-1.977-0.658-2.781c-0.049-0.806-0.072-1.329-0.072-1.575V31.57c0-1.196-0.252-2.209-0.755-3.038
		c-0.502-0.83-1.134-1.507-1.895-2.031c-0.76-0.524-1.552-0.922-2.374-1.19c-0.823-0.268-1.564-0.476-2.226-0.623h-0.221
		c-0.492-0.099-0.902-0.328-1.233-0.689c-0.331-0.361-0.496-0.828-0.496-1.4s0.201-1.057,0.604-1.454
		c0.402-0.396,0.873-0.596,1.411-0.596c0.146,0,0.269,0.024,0.366,0.073h0.404c1.148,0.197,2.333,0.547,3.554,1.051
		c1.222,0.504,2.347,1.198,3.372,2.082c1.026,0.886,1.862,1.954,2.51,3.207c0.647,1.254,0.971,2.79,0.971,4.609v15.373v0.146
		c0,0.051,0.012,0.348,0.038,0.896c0.023,0.55,0.188,1.203,0.495,1.958c0.304,0.757,0.793,1.532,1.465,2.325
		c0.671,0.792,1.691,1.471,3.061,2.031c0.146,0,0.293,0.072,0.44,0.22c0.61,0.341,0.903,0.89,0.879,1.647
		c0,0.707-0.293,1.256-0.879,1.647c-0.197,0.097-0.318,0.17-0.367,0.218c-1.343,0.561-2.371,1.239-3.079,2.033
		c-0.708,0.792-1.216,1.567-1.52,2.323c-0.306,0.757-0.471,1.409-0.495,1.958c-0.025,0.55-0.038,0.85-0.038,0.896v0.147v14.166
		c0,1.818-0.324,3.354-0.971,4.607c-0.647,1.254-1.484,2.322-2.51,3.208c-1.025,0.885-2.15,1.561-3.372,2.027
		c-1.221,0.467-2.406,0.836-3.554,1.106h-0.404c-0.097,0.048-0.22,0.073-0.366,0.073c-0.563,0-1.04-0.207-1.43-0.614
		C141.675,89.555,141.48,89.062,141.48,88.491z"/>
	
		<text transform="matrix(1 0 0 1 -586.7246 350.626)" fill="#686868" stroke="#686868" stroke-width="2" stroke-linecap="round" stroke-linejoin="round" stroke-miterlimit="10" font-family="'Existence-Light'" font-size="30.6266">codeMath</text>
	
		<path fill="#686868" stroke="#686868" stroke-width="6" stroke-linecap="round" stroke-linejoin="round" stroke-miterlimit="10" d="
		M-562.139,284.16c0-0.708,0.294-1.256,0.88-1.646c0.196-0.098,0.317-0.17,0.366-0.22c1.344-0.562,2.37-1.237,3.079-2.031
		c0.709-0.793,1.215-1.567,1.521-2.324c0.305-0.757,0.471-1.408,0.495-1.958s0.037-0.848,0.037-0.897v-0.147v-14.164
		c0-1.819,0.324-3.355,0.971-4.609c0.648-1.253,1.485-2.321,2.511-3.207c1.026-0.884,2.151-1.559,3.372-2.027
		c1.221-0.467,2.406-0.836,3.555-1.105h0.403c0.097-0.049,0.22-0.073,0.367-0.073c0.561,0,1.038,0.204,1.429,0.615
		c0.39,0.41,0.586,0.9,0.586,1.473s-0.166,1.033-0.497,1.381c-0.332,0.349-0.742,0.572-1.232,0.671h-0.221
		c-0.662,0.147-1.405,0.355-2.226,0.623c-0.822,0.269-1.613,0.666-2.374,1.19s-1.392,1.201-1.895,2.031
		c-0.502,0.829-0.754,1.842-0.754,3.038v14.092c0.049,0.562,0.025,1.227-0.073,1.995c-0.097,0.769-0.322,1.568-0.677,2.397
		c-0.354,0.83-0.818,1.667-1.393,2.508c-0.574,0.84-1.337,1.641-2.29,2.396c1.002,0.806,1.807,1.648,2.418,2.525
		c0.61,0.879,1.038,1.685,1.283,2.417c0.391,1.05,0.61,1.977,0.658,2.782c0.049,0.805,0.073,1.33,0.073,1.573v15.301
		c0,1.195,0.252,2.208,0.754,3.038c0.503,0.829,1.135,1.506,1.895,2.032c0.76,0.523,1.551,0.921,2.374,1.188
		c0.821,0.268,1.564,0.475,2.226,0.622h0.221c0.491,0.099,0.901,0.329,1.232,0.691c0.331,0.36,0.497,0.826,0.497,1.398
		s-0.202,1.058-0.604,1.456c-0.403,0.396-0.874,0.596-1.411,0.596c-0.147,0-0.27-0.025-0.367-0.073h-0.403
		c-1.149-0.198-2.334-0.548-3.555-1.052c-1.221-0.504-2.346-1.197-3.372-2.082c-1.025-0.886-1.863-1.954-2.511-3.208
		c-0.647-1.253-0.971-2.789-0.971-4.607v-15.374v-0.146c0-0.049-0.013-0.348-0.037-0.896s-0.189-1.201-0.495-1.958
		c-0.306-0.757-0.795-1.53-1.466-2.324c-0.671-0.793-1.692-1.47-3.06-2.031c-0.146,0-0.293-0.074-0.44-0.22
		C-561.87,285.467-562.162,284.919-562.139,284.16z"/>
	<path fill="#40C0BE" stroke="#40C0BE" stroke-width="6" stroke-miterlimit="10" d="M-539.05,286.207c0-0.8,0.275-1.477,0.825-2.032
		c0.551-0.555,1.221-0.834,2.014-0.834h11.919v-9.613v-1.131c0-0.787,0.284-1.464,0.852-2.029c0.567-0.565,1.247-0.849,2.039-0.849
		c0.791,0,1.462,0.283,2.012,0.849c0.55,0.565,0.826,1.242,0.826,2.029v1.131v9.613h12.024c0.791,0,1.47,0.279,2.038,0.834
		c0.568,0.556,0.852,1.232,0.852,2.032c0,0.797-0.283,1.475-0.852,2.03c-0.568,0.555-1.247,0.833-2.038,0.833h-12.024v11.621v0.205
		c0,0.79-0.284,1.459-0.851,2.007c-0.568,0.549-1.23,0.822-1.987,0.822c-0.792,0-1.471-0.281-2.039-0.849
		c-0.568-0.566-0.852-1.225-0.852-1.98V289.07h-11.919c-0.792,0-1.463-0.287-2.014-0.859
		C-538.775,287.639-539.05,286.971-539.05,286.207z"/>
	
		<path fill="#686868" stroke="#686868" stroke-width="6" stroke-linecap="round" stroke-linejoin="round" stroke-miterlimit="10" d="
		M-500.717,317.692c0-0.573,0.165-1.034,0.496-1.38c0.332-0.35,0.742-0.574,1.233-0.673h0.221c0.662-0.147,1.403-0.354,2.226-0.622
		c0.822-0.268,1.613-0.665,2.374-1.188c0.761-0.526,1.392-1.203,1.895-2.032c0.503-0.83,0.755-1.843,0.755-3.038v-14.092
		c-0.05-0.562-0.025-1.228,0.072-1.996c0.098-0.767,0.324-1.567,0.678-2.397c0.353-0.83,0.818-1.666,1.392-2.508
		c0.573-0.842,1.337-1.641,2.291-2.396c-1.001-0.805-1.809-1.647-2.418-2.526c-0.611-0.878-1.039-1.684-1.284-2.416
		c-0.39-1.049-0.61-1.977-0.658-2.781c-0.049-0.806-0.072-1.329-0.072-1.575v-15.299c0-1.196-0.252-2.209-0.755-3.038
		c-0.502-0.83-1.134-1.507-1.895-2.031c-0.76-0.524-1.552-0.922-2.374-1.19c-0.823-0.268-1.564-0.476-2.226-0.623h-0.221
		c-0.492-0.099-0.902-0.328-1.233-0.689c-0.331-0.361-0.496-0.828-0.496-1.4s0.201-1.057,0.604-1.454
		c0.402-0.396,0.873-0.596,1.411-0.596c0.146,0,0.269,0.024,0.366,0.073h0.404c1.148,0.197,2.333,0.547,3.554,1.051
		c1.222,0.504,2.347,1.198,3.372,2.082c1.026,0.886,1.862,1.954,2.51,3.207c0.647,1.254,0.971,2.79,0.971,4.609v15.373v0.146
		c0,0.051,0.012,0.348,0.038,0.896c0.023,0.55,0.188,1.203,0.495,1.958c0.304,0.757,0.793,1.532,1.465,2.325
		c0.671,0.792,1.691,1.471,3.061,2.031c0.146,0,0.293,0.072,0.44,0.22c0.61,0.341,0.903,0.89,0.879,1.647
		c0,0.707-0.293,1.256-0.879,1.647c-0.197,0.097-0.318,0.17-0.367,0.218c-1.343,0.561-2.371,1.239-3.079,2.033
		c-0.708,0.792-1.216,1.567-1.52,2.323c-0.306,0.757-0.471,1.409-0.495,1.958c-0.025,0.55-0.038,0.85-0.038,0.896v0.147v14.166
		c0,1.818-0.324,3.354-0.971,4.607c-0.647,1.254-1.484,2.322-2.51,3.208c-1.025,0.885-2.15,1.561-3.372,2.027
		c-1.221,0.467-2.406,0.836-3.554,1.106h-0.404c-0.097,0.048-0.22,0.073-0.366,0.073c-0.563,0-1.04-0.207-1.43-0.614
		C-500.522,318.756-500.717,318.264-500.717,317.692z"/>
	<text transform="matrix(1 0 0 1 292.1191 359.5459)"><tspan x="0" y="0" fill="#686868" font-family="'AbsaraSansTF-Light'" font-size="32.051">Whats codeMat</tspan><tspan x="221.021" y="0" fill="#686868" font-family="'AbsaraSansTF-Light'" font-size="32.051" letter-spacing="-1">h?</tspan></text>
	<text transform="matrix(1 0 0 1 292.1191 204.8789)"><tspan x="0" y="0" fill="#686868" font-family="'BryantPro-Regular'" font-size="32.051">Whats codeMat</tspan><tspan x="231.245" y="0" fill="#686868" font-family="'BryantPro-Regular'" font-size="32.051" letter-spacing="-1">h?</tspan></text>
	<g>
		<text transform="matrix(1 0 0 1 323.6885 90.5801)" fill="#686868" font-family="'Elderkin-Medium'" font-size="30.6266">whats codeMath?</text>
	</g>
	<g>
		<text transform="matrix(1 0 0 1 552.8975 90.5801)" fill="#686868" font-family="'Elderkin-Medium'" font-size="30.6266">trajectory</text>
	</g>
	<text transform="matrix(1 0 0 1 292.1191 286.0117)"><tspan x="0" y="0" fill="#686868" font-family="'Elderkin-Light'" font-size="32.051">Whats codeMat</tspan><tspan x="132.623" y="0" fill="#686868" font-family="'Elderkin-Light'" font-size="32.051" letter-spacing="-1">h?</tspan></text>
	<text transform="matrix(1 0 0 1 292.1191 326)"><tspan x="0" y="0" fill="#686868" font-family="'LolitaMedium'" font-size="32.051">Whats codeMat</tspan><tspan x="199.354" y="0" fill="#686868" font-family="'LolitaMedium'" font-size="32.051" letter-spacing="-1">h?</tspan></text>
	<g>
		<text transform="matrix(1 0 0 1 726.5635 90.5801)" fill="#686868" font-family="'Elderkin-Medium'" font-size="30.6266">examples</text>
	</g>
	<g>
		<text transform="matrix(1 0 0 1 916.7754 90.5801)" fill="#686868" font-family="'Elderkin-Medium'" font-size="30.6266">contact</text>
	</g>
	<g>
		<rect x="597.31" y="177.943" fill="none" width="444.839" height="524.974"/>
		<text transform="matrix(1 0 0 1 597.3101 199.1982)"><tspan x="0" y="0" fill="#686868" font-family="'Klavika-Light'" font-size="30.6266">Lorem ipsum dolor sit amet, con</tspan><tspan x="401.595" y="0" fill="#686868" font-family="'Klavika-Light'" font-size="30.6266">-</tspan><tspan x="0" y="36.751" fill="#686868" font-family="'Klavika-Light'" font-size="30.6266">sectetuer adipiscing elit, sed diam </tspan><tspan x="0" y="73.503" fill="#686868" font-family="'Klavika-Light'" font-size="30.6266">nonummy nibh euismod tincidunt </tspan><tspan x="0" y="110.255" fill="#686868" font-family="'Klavika-Light'" font-size="30.6266">ut laoreet dolore magna aliquam </tspan><tspan x="0" y="147.007" fill="#686868" font-family="'Klavika-Light'" font-size="30.6266">erat volutpat. Ut wisi enim ad </tspan><tspan x="0" y="183.759" fill="#686868" font-family="'Klavika-Light'" font-size="30.6266">minim veniam, quis nostrud exerci </tspan><tspan x="0" y="220.511" fill="#686868" font-family="'Klavika-Light'" font-size="30.6266">tation ullamcorper suscipit lobortis </tspan><tspan x="0" y="257.263" fill="#686868" font-family="'Klavika-Light'" font-size="30.6266">nisl ut aliquip ex ea commodo con</tspan><tspan x="418.993" y="257.263" fill="#686868" font-family="'Klavika-Light'" font-size="30.6266">-</tspan><tspan x="0" y="294.015" fill="#686868" font-family="'Klavika-Light'" font-size="30.6266">sequat. Duis autem vel eum iriure </tspan><tspan x="0" y="330.767" fill="#686868" font-family="'Klavika-Light'" font-size="30.6266">dolor in hendrerit in vulputate velit </tspan><tspan x="0" y="367.519" fill="#686868" font-family="'Klavika-Light'" font-size="30.6266">esse molestie consequat, vel illum </tspan><tspan x="0" y="404.271" fill="#686868" font-family="'Klavika-Light'" font-size="30.6266">dolore eu feugiat nulla facilisis at </tspan><tspan x="0" y="441.022" fill="#686868" font-family="'Klavika-Light'" font-size="30.6266">vero eros et accumsan et iusto odio </tspan><tspan x="0" y="477.774" fill="#686868" font-family="'Klavika-Light'" font-size="30.6266">dignissim qui blandit praesent </tspan></text>
	</g>
</g>
<g id="_x30_2_x5F_variables" display="none">
	<text transform="matrix(1 0 0 1 263.6885 -1996.9775)" display="inline" font-family="'Gotham-Book'" font-size="57.7499">X + Y = ?</text>
	<rect x="451.179" y="-1957.95" display="inline" fill="#52C6DA" width="317.984" height="211.489"/>
	<rect x="769.163" y="-1957.95" display="inline" fill="#E99C23" width="202.49" height="211.489"/>
	<text transform="matrix(1 0 0 1 598.1724 -1706.4648)" display="inline" font-family="'Gotham-Book'" font-size="42">X</text>
	<text transform="matrix(1 0 0 1 858.1724 -1706.4648)" display="inline" font-family="'Gotham-Book'" font-size="42">Y</text>
</g>
<g id="_x30_3_x5F_cartisean_x5F_plane" display="none">
	<text transform="matrix(1 0 0 1 101.6885 -2075.9775)" display="inline" font-family="'Gotham-Book'" font-size="57.7499">Cartisean Plane</text>
	<text transform="matrix(1 0 0 1 1069.6885 -1969.0977)" display="inline" font-family="'Gotham-Book'" font-size="57.7499">I</text>
	<text transform="matrix(1 0 0 1 845.6885 -1969.0977)" display="inline" font-family="'Gotham-Book'" font-size="57.7499">II</text>
	<text transform="matrix(1 0 0 1 845.6885 -1759.0977)" display="inline" font-family="'Gotham-Book'" font-size="57.7499">III</text>
	<text transform="matrix(1 0 0 1 1057.6885 -1759.0977)" display="inline" font-family="'Gotham-Book'" font-size="57.7499">IV</text>
	
		<line display="inline" fill="#FFFFFF" stroke="#000000" stroke-miterlimit="10" x1="110.688" y1="-2030.594" x2="650.5" y2="-2030.594"/>
	
		<line display="inline" fill="#FFFFFF" stroke="#000000" stroke-miterlimit="10" x1="110.688" y1="-2000.596" x2="650.5" y2="-2000.596"/>
	
		<line display="inline" fill="#FFFFFF" stroke="#000000" stroke-miterlimit="10" x1="110.688" y1="-1969.098" x2="650.5" y2="-1969.098"/>
	
		<line display="inline" fill="#FFFFFF" stroke="#000000" stroke-miterlimit="10" x1="110.688" y1="-1932.644" x2="650.5" y2="-1932.644"/>
	
		<line display="inline" fill="#FFFFFF" stroke="#000000" stroke-miterlimit="10" x1="110.688" y1="-1895.601" x2="650.5" y2="-1895.601"/>
	<line display="inline" fill="none" stroke="#000000" stroke-miterlimit="10" x1="970.5" y1="-2096" x2="970.5" y2="-1678"/>
	<line display="inline" fill="none" stroke="#000000" stroke-miterlimit="10" x1="744.5" y1="-1887" x2="1176.5" y2="-1887"/>
	<text transform="matrix(1 0 0 1 1164.5 -1848)" display="inline" font-family="'Gotham-Book'" font-size="42">x</text>
	<text transform="matrix(1 0 0 1 984.5 -2075.9775)" display="inline" font-family="'Gotham-Book'" font-size="42">y</text>
</g>
<g id="_x30_4_x5F_cartisean_x5F_plane" display="none">
	<line display="inline" fill="#FFFFFF" stroke="#000000" stroke-miterlimit="10" x1="608.5" y1="-2156" x2="608.5" y2="-1636"/>
	<line display="inline" fill="#FFFFFF" stroke="#000000" stroke-miterlimit="10" x1="356.5" y1="-1896" x2="858.5" y2="-1896"/>
	<text transform="matrix(1 0 0 1 836.5 -1906)" display="inline" font-family="'Gotham-Book'" font-size="42">x</text>
	<text transform="matrix(1 0 0 1 618.5 -2132)" display="inline" font-family="'Gotham-Book'" font-size="42">y</text>
	<polygon display="inline" fill="#0D66A6" points="677.673,-2017.498 696.148,-2017.498 686.911,-2001.498 677.673,-1985.498 
		668.436,-2001.498 659.198,-2017.498 	"/>
	<text transform="matrix(1 0 0 1 904.5 -1906)" display="inline" font-family="'Gotham-Book'" font-size="56.3308">(x,y)</text>
</g>
<g id="_x30_5_x5F_cartisean_x5F_plane" display="none">
	
		<line display="inline" fill="#FFFFFF" stroke="#000000" stroke-miterlimit="10" x1="367.182" y1="-2104.943" x2="835.5" y2="-2104.943"/>
	
		<line display="inline" fill="#FFFFFF" stroke="#000000" stroke-miterlimit="10" x1="367.182" y1="-2071.945" x2="835.5" y2="-2071.945"/>
	
		<line display="inline" fill="#FFFFFF" stroke="#000000" stroke-miterlimit="10" x1="367.182" y1="-2035.946" x2="835.5" y2="-2035.946"/>
	
		<line display="inline" fill="#FFFFFF" stroke="#000000" stroke-miterlimit="10" x1="367.182" y1="-1999.948" x2="835.5" y2="-1999.948"/>
	
		<line display="inline" fill="#FFFFFF" stroke="#000000" stroke-miterlimit="10" x1="367.182" y1="-1963.95" x2="835.5" y2="-1963.95"/>
	
		<line display="inline" fill="#FFFFFF" stroke="#000000" stroke-miterlimit="10" x1="367.182" y1="-1927.952" x2="835.5" y2="-1927.952"/>
	
		<line display="inline" fill="#FFFFFF" stroke="#000000" stroke-miterlimit="10" x1="367.182" y1="-1891.954" x2="835.5" y2="-1891.954"/>
	
		<line display="inline" fill="#FFFFFF" stroke="#000000" stroke-miterlimit="10" x1="367.182" y1="-1855.956" x2="835.5" y2="-1855.956"/>
	
		<line display="inline" fill="#FFFFFF" stroke="#000000" stroke-miterlimit="10" x1="367.182" y1="-1819.957" x2="835.5" y2="-1819.957"/>
	
		<line display="inline" fill="none" stroke="#000000" stroke-miterlimit="10" x1="367.182" y1="-2104.943" x2="367.182" y2="-1819.957"/>
	
		<line display="inline" fill="none" stroke="#000000" stroke-miterlimit="10" x1="403.18" y1="-2105.443" x2="403.18" y2="-1820.457"/>
	
		<line display="inline" fill="none" stroke="#000000" stroke-miterlimit="10" x1="439.178" y1="-2105.443" x2="439.178" y2="-1820.457"/>
	
		<line display="inline" fill="none" stroke="#000000" stroke-miterlimit="10" x1="475.176" y1="-2105.443" x2="475.176" y2="-1820.457"/>
	
		<line display="inline" fill="none" stroke="#000000" stroke-miterlimit="10" x1="511.174" y1="-2105.443" x2="511.174" y2="-1820.457"/>
	
		<line display="inline" fill="none" stroke="#000000" stroke-miterlimit="10" x1="547.172" y1="-2105.443" x2="547.172" y2="-1820.457"/>
	
		<line display="inline" fill="none" stroke="#000000" stroke-miterlimit="10" x1="583.5" y1="-2104.943" x2="583.5" y2="-1819.957"/>
	
		<line display="inline" fill="none" stroke="#000000" stroke-miterlimit="10" x1="619.5" y1="-2105.443" x2="619.5" y2="-1820.457"/>
	
		<line display="inline" fill="none" stroke="#000000" stroke-miterlimit="10" x1="655.5" y1="-2104.943" x2="655.5" y2="-1819.957"/>
	
		<line display="inline" fill="none" stroke="#000000" stroke-miterlimit="10" x1="691.5" y1="-2104.943" x2="691.5" y2="-1819.957"/>
	
		<line display="inline" fill="none" stroke="#000000" stroke-miterlimit="10" x1="727.5" y1="-2104.943" x2="727.5" y2="-1819.957"/>
	
		<line display="inline" fill="none" stroke="#000000" stroke-miterlimit="10" x1="763.5" y1="-2104.943" x2="763.5" y2="-1819.957"/>
	
		<line display="inline" fill="none" stroke="#000000" stroke-miterlimit="10" x1="799.5" y1="-2104.943" x2="799.5" y2="-1819.957"/>
	
		<line display="inline" fill="none" stroke="#000000" stroke-miterlimit="10" x1="835.5" y1="-2104.943" x2="835.5" y2="-1819.957"/>
	<text transform="matrix(1 0 0 1 327.5 -1822)" display="inline" font-family="'Gotham-Book'" font-size="42">Y</text>
	<text transform="matrix(1 0 0 1 803.5 -2112)" display="inline" font-family="'Gotham-Book'" font-size="42">X</text>
	<circle display="inline" fill="#4CB748" cx="493.172" cy="-2088.447" r="15.996"/>
	<line display="inline" fill="#FFFFFF" stroke="#000000" stroke-miterlimit="10" x1="376.5" y1="-1775" x2="828.5" y2="-1775"/>
	<line display="inline" fill="#FFFFFF" stroke="#000000" stroke-miterlimit="10" x1="376.5" y1="-1745" x2="828.5" y2="-1745"/>
	<line display="inline" fill="#FFFFFF" stroke="#000000" stroke-miterlimit="10" x1="376.5" y1="-1715" x2="828.5" y2="-1715"/>
	<line display="inline" fill="#FFFFFF" stroke="#000000" stroke-miterlimit="10" x1="376.5" y1="-1685" x2="828.5" y2="-1685"/>
	<line display="inline" fill="#FFFFFF" stroke="#000000" stroke-miterlimit="10" x1="376.5" y1="-1655" x2="648.5" y2="-1655"/>
	<text transform="matrix(1 0 0 1 858.1665 -1822)" display="inline" font-family="'Gotham-Book'" font-size="42">(X,Y)</text>
</g>
<g id="_x30_6_x5F_circle" display="none">
	
		<line display="inline" fill="#FFFFFF" stroke="#000000" stroke-miterlimit="10" x1="469.678" y1="-2189.44" x2="469.678" y2="-1745.463"/>
	
		<line display="inline" fill="none" stroke="#000000" stroke-miterlimit="10" x1="244.688" y1="-1967.451" x2="676.667" y2="-1967.451"/>
	<text transform="matrix(1 0 0 1 654.1685 -1926.9541)" display="inline" font-family="'Gotham-Book'" font-size="42">x</text>
	<text transform="matrix(1 0 0 1 478.6772 -2160.9424)" display="inline" font-family="'Gotham-Book'" font-size="42">y</text>
	
		<line display="inline" fill="#FFFFFF" stroke="#000000" stroke-miterlimit="10" x1="244.688" y1="-1695.965" x2="676.667" y2="-1695.965"/>
	<line display="inline" fill="#FFFFFF" stroke="#000000" stroke-miterlimit="10" x1="244.688" y1="-1659" x2="676.667" y2="-1659"/>
	<line display="inline" fill="#FFFFFF" stroke="#000000" stroke-miterlimit="10" x1="244.688" y1="-1623" x2="676.667" y2="-1623"/>
	<line display="inline" fill="#FFFFFF" stroke="#000000" stroke-miterlimit="10" x1="244.688" y1="-1587" x2="552.5" y2="-1587"/>
	<circle display="inline" fill="#37BFC3" cx="469.678" cy="-1967.451" r="93.5"/>
	<text transform="matrix(1 0 0 1 571.0117 -2091.4932)" display="inline" font-family="'Gotham-Book'" font-size="42">x</text>
	<text transform="matrix(0.583 0 0 0.583 595.1191 -2105.4795)" display="inline" font-family="'Gotham-Book'" font-size="42">2</text>
	<text transform="matrix(1 0 0 1 609.7861 -2091.4932)" display="inline" font-family="'Gotham-Book'" font-size="42"> + y</text>
	<text transform="matrix(0.583 0 0 0.583 686.0566 -2105.4795)" display="inline" font-family="'Gotham-Book'" font-size="42">2</text>
	<text transform="matrix(1 0 0 1 700.7241 -2091.4932)" display="inline" font-family="'Gotham-Book'" font-size="42"> = r</text>
	<text transform="matrix(0.583 0 0 0.583 769.1826 -2105.4795)" display="inline" font-family="'Gotham-Book'" font-size="42">2</text>
</g>
<g id="_x30_7_x5F_circle_x5F_x_x5F_axis" display="none">
	
		<line display="inline" fill="#FFFFFF" stroke="#000000" stroke-miterlimit="10" x1="319.186" y1="-2091.946" x2="319.186" y2="-1799.461"/>
	
		<line display="inline" fill="none" stroke="#000000" stroke-miterlimit="10" x1="209.691" y1="-1945.703" x2="1028.65" y2="-1945.703"/>
	<circle display="inline" fill="#0DBCC1" cx="493.177" cy="-1945.703" r="62.247"/>
	<text transform="matrix(0.583 0 0 0.583 998.6934 -1911.7822)" display="inline" font-family="'Gotham-Book'" font-size="58.4631">x</text>
	
		<line display="inline" fill="#FFFFFF" stroke="#000000" stroke-miterlimit="10" x1="209.691" y1="-1757.463" x2="619.17" y2="-1757.463"/>
	
		<line display="inline" fill="#FFFFFF" stroke="#000000" stroke-miterlimit="10" x1="209.691" y1="-1721.465" x2="619.17" y2="-1721.465"/>
	
		<line display="inline" fill="#FFFFFF" stroke="#000000" stroke-miterlimit="10" x1="209.691" y1="-1685.466" x2="619.17" y2="-1685.466"/>
	
		<line display="inline" fill="#FFFFFF" stroke="#000000" stroke-miterlimit="10" x1="209.691" y1="-1649.468" x2="533.675" y2="-1649.468"/>
	<text transform="matrix(0.583 0 0 0.583 467.6782 -1855.4443)" display="inline" font-family="'Gotham-Book'" font-size="42">circle( x, radius)</text>
</g>
<g id="_x30_8_x5F_circle_x5F_y_x5F_axis" display="none">
	
		<line display="inline" fill="#FFFFFF" stroke="#000000" stroke-miterlimit="10" x1="319.186" y1="-2150.436" x2="319.186" y2="-1699.461"/>
	
		<line display="inline" fill="none" stroke="#000000" stroke-miterlimit="10" x1="209.691" y1="-1799.461" x2="431.68" y2="-1799.461"/>
	<circle display="inline" fill="#0DBCC1" cx="319.186" cy="-1799.462" r="62.247"/>
	<text transform="matrix(0.583 0 0 0.583 332.7266 -2124.7715)" display="inline" font-family="'Gotham-Book'" font-size="58.4631">y</text>
	<text transform="matrix(0.583 0 0 0.583 371.6831 -1720.4502)" display="inline" font-family="'Gotham-Book'" font-size="42">circle( y, radius)</text>
	<text transform="matrix(0.583 0 0 0.583 409.2383 -1768.7783)" display="inline" font-family="'Gotham-Book'" font-size="58.4631">x</text>
</g>
<g id="_x30_9_x5F_circle_x5F_canvas" display="none">
	
		<line display="inline" fill="#FFFFFF" stroke="#000000" stroke-miterlimit="10" x1="367.182" y1="-2104.943" x2="835.5" y2="-2104.943"/>
	
		<line display="inline" fill="#FFFFFF" stroke="#000000" stroke-miterlimit="10" x1="367.182" y1="-1819.957" x2="835.5" y2="-1819.957"/>
	
		<line display="inline" fill="none" stroke="#000000" stroke-miterlimit="10" x1="367.182" y1="-2104.943" x2="367.182" y2="-1819.957"/>
	
		<line display="inline" fill="none" stroke="#000000" stroke-miterlimit="10" x1="835.5" y1="-2104.943" x2="835.5" y2="-1819.957"/>
	<text transform="matrix(0.583 0 0 0.583 367.1816 -2118.9297)" display="inline" font-family="'Gotham-Book'" font-size="42">(0,0)</text>
	<text transform="matrix(0.583 0 0 0.583 811.6621 -2118.9297)" display="inline" font-family="'Gotham-Book'" font-size="42">X</text>
	<text transform="matrix(0.583 0 0 0.583 337.686 -1827.9434)" display="inline" font-family="'Gotham-Book'" font-size="42">Y</text>
	<circle display="inline" fill="#1485BF" cx="607.921" cy="-1972.2" r="47.248"/>
	<text transform="matrix(0.583 0 0 0.583 858.9888 -2081.4316)" display="inline"><tspan x="0" y="0" font-family="'Gotham-Book'" font-size="42">var radius = 10</tspan><tspan x="0" y="86.45" font-family="'Gotham-Book'" font-size="42">circle(x,y,radius)</tspan></text>
</g>
<g id="_x31_0_x5F_multiple_x5F_circles" display="none">
	
		<line display="inline" fill="#FFFFFF" stroke="#000000" stroke-miterlimit="10" x1="367.182" y1="-2104.943" x2="835.5" y2="-2104.943"/>
	
		<line display="inline" fill="#FFFFFF" stroke="#000000" stroke-miterlimit="10" x1="367.182" y1="-1819.957" x2="835.5" y2="-1819.957"/>
	
		<line display="inline" fill="none" stroke="#000000" stroke-miterlimit="10" x1="835.5" y1="-2104.943" x2="835.5" y2="-1819.957"/>
	
		<line display="inline" fill="none" stroke="#000000" stroke-miterlimit="10" x1="367.182" y1="-2104.943" x2="367.182" y2="-1819.957"/>
	<text transform="matrix(0.583 0 0 0.583 367.1816 -2118.9297)" display="inline" font-family="'Gotham-Book'" font-size="42">(0,0)</text>
	<text transform="matrix(0.583 0 0 0.583 203.6108 -1932.9395)" display="inline" font-family="'Gotham-Book'" font-size="42">Add circle</text>
	<text transform="matrix(0.583 0 0 0.583 811.6621 -2118.9297)" display="inline" font-family="'Gotham-Book'" font-size="42">X</text>
	<text transform="matrix(0.583 0 0 0.583 337.686 -1827.9434)" display="inline" font-family="'Gotham-Book'" font-size="42">Y</text>
	<text transform="matrix(0.583 0 0 0.583 858.9888 -2081.4316)" display="inline"><tspan x="0" y="0" font-family="'Gotham-Book'" font-size="42">var radius = 10</tspan><tspan x="0" y="86.45" font-family="'Gotham-Book'" font-size="42">circle(x,y,radius)</tspan></text>
	<text transform="matrix(0.583 0 0 0.583 858.9888 -1985.4365)" display="inline"><tspan x="0" y="0" font-family="'Gotham-Book'" font-size="42">var radius = 8</tspan><tspan x="0" y="86.45" font-family="'Gotham-Book'" font-size="42">circle(x,y,radius)</tspan></text>
	<text transform="matrix(0.583 0 0 0.583 858.9888 -1897.7256)" display="inline"><tspan x="0" y="0" font-family="'Gotham-Book'" font-size="42">var radius = 8</tspan><tspan x="0" y="86.45" font-family="'Gotham-Book'" font-size="42">circle(x,y,radius)</tspan></text>
	<circle display="inline" fill="#1485BF" cx="465.404" cy="-2035.229" r="39.715"/>
	<circle display="inline" fill="#2DB66F" cx="651.394" cy="-1918.954" r="35.215"/>
	<circle display="inline" fill="#0DA4BC" cx="265.266" cy="-1999.949" r="23.999"/>
	<circle display="inline" fill="#0DA4BC" cx="481.12" cy="-1962.45" r="23.999"/>
	<circle display="inline" fill="#0DA4BC" cx="662.61" cy="-2067.445" r="23.999"/>
</g>
</svg>
