<?xml version="1.0" encoding="utf-8"?>
<!-- Generator: Adobe Illustrator 15.0.0, SVG Export Plug-In . SVG Version: 6.00 Build 0)  -->
<!DOCTYPE svg PUBLIC "-//W3C//DTD SVG 1.1//EN" "http://www.w3.org/Graphics/SVG/1.1/DTD/svg11.dtd">
<svg version="1.1" id="Layer_1" xmlns="http://www.w3.org/2000/svg" xmlns:xlink="http://www.w3.org/1999/xlink" x="0px" y="0px"
	 width="75px" height="75px" viewBox="0 0 75 75" enable-background="new 0 0 75 75" xml:space="preserve">
<g>
	<path fill="#FFFFFF" d="M37.25,67.25c-16.542,0-30-13.457-30-30c0-16.542,13.458-30,30-30c16.543,0,30,13.458,30,30
		C67.25,53.793,53.793,67.25,37.25,67.25z M37.25,9.082c-15.532,0-28.168,12.636-28.168,28.168
		c0,15.531,12.636,28.168,28.168,28.168c15.531,0,28.168-12.637,28.168-28.168C65.418,21.718,52.781,9.082,37.25,9.082z"/>
</g>
<g>
	<path fill="#FFFFFF" d="M34.86,48.113c-0.234,0-0.469-0.09-0.647-0.268c-0.358-0.358-0.358-0.938,0-1.296l9.4-9.4l-9.658-9.657
		c-0.357-0.358-0.357-0.938,0-1.296c0.358-0.358,0.938-0.358,1.295,0l10.954,10.953L35.507,47.846
		C35.329,48.023,35.094,48.113,34.86,48.113z"/>
</g>
</svg>
